<svg width="51" height="51" viewBox="0 0 51 51" fill="none" xmlns="http://www.w3.org/2000/svg">
<path d="M17.5198 7.67722C17.6637 7.92644 17.9257 8.06794 18.1968 8.06794C18.3099 8.06794 18.4246 8.04333 18.5328 7.99167C20.3505 7.12429 22.3031 6.60612 24.3364 6.45153C24.7437 6.42058 25.0585 6.08103 25.0585 5.67253V2.00495C25.0585 1.78913 24.9691 1.58288 24.8118 1.43523C24.6545 1.28757 24.4432 1.2114 24.2275 1.22536C21.3554 1.40876 18.595 2.14802 16.0228 3.42263C15.8295 3.51843 15.6843 3.69001 15.6218 3.89655C15.5593 4.1031 15.5852 4.32634 15.693 4.51325L17.5198 7.67722ZM23.496 2.85476V4.96267C21.7703 5.16257 20.1017 5.60524 18.5191 6.28308L17.4711 4.46774C19.3863 3.61511 21.4063 3.07429 23.496 2.85476ZM6.19361 32.4548C6.28922 32.6484 6.4608 32.7938 6.66754 32.8565C6.74166 32.879 6.81803 32.8901 6.894 32.8901C7.02984 32.8901 7.16471 32.8547 7.28463 32.7854L10.4635 30.9502C10.8166 30.7464 10.9536 30.3053 10.7781 29.9373C9.90846 28.1136 9.38775 26.1628 9.23014 24.1389C9.1984 23.7322 8.85914 23.4183 8.45123 23.4183H4.78258C4.56676 23.4183 4.36041 23.5077 4.21275 23.6651C4.0651 23.8225 3.98912 24.0342 4.00299 24.2496C4.18736 27.1244 4.92447 29.8849 6.19361 32.4548ZM7.74283 24.9807C7.94527 26.6994 8.3901 28.3656 9.06949 29.9508L7.24029 31.0068C6.39137 29.0928 5.8523 27.0723 5.63258 24.9807H7.74283ZM4.78268 22.284H8.46568C8.87096 22.284 9.20904 21.974 9.244 21.5702C9.41988 19.5415 9.94469 17.5925 10.8039 15.7773C10.9779 15.4096 10.8406 14.9699 10.4883 14.7665L7.29039 12.9202C7.10348 12.8123 6.88014 12.7864 6.67359 12.849C6.46695 12.9115 6.29537 13.0566 6.19957 13.2501C4.92643 15.8213 4.18746 18.581 4.00299 21.4526C3.98912 21.668 4.0651 21.8797 4.21275 22.0371C4.36051 22.1946 4.56676 22.284 4.78268 22.284ZM7.24527 14.6983L9.09586 15.7668C8.42418 17.343 7.9773 19.004 7.76285 20.7215H5.63268C5.85289 18.6324 6.39352 16.6129 7.24527 14.6983ZM49.1119 24.8898C48.9091 24.472 48.4945 24.2126 48.0295 24.2125H47.26C47.2881 23.7592 47.3023 23.304 47.3023 22.8511C47.3023 17.3053 45.2089 12.0292 41.4079 7.9946C37.6235 3.97771 32.5151 1.57351 27.0235 1.22468C26.8085 1.2112 26.5966 1.28698 26.4394 1.43464C26.2821 1.5823 26.1928 1.78855 26.1928 2.00427V5.67282C26.1928 6.08103 26.507 6.42038 26.914 6.45173C35.4177 7.10778 42.0791 14.3112 42.0791 22.851C42.0791 23.3042 42.0604 23.7597 42.0232 24.2123H41.5236C41.0588 24.2123 40.6441 24.4717 40.4414 24.8895C40.2386 25.3072 40.2913 25.7935 40.5788 26.1586L43.832 30.2907C44.0616 30.5821 44.4059 30.7492 44.7769 30.7491C45.1478 30.7491 45.4921 30.5819 45.7214 30.2905L48.9745 26.1586C49.2619 25.7937 49.3146 25.3075 49.1119 24.8898ZM44.7765 28.965L42.2651 25.7751H42.7278C43.122 25.7751 43.4545 25.4814 43.5031 25.0902C43.5949 24.3514 43.6415 23.5981 43.6415 22.8512C43.6415 18.2851 41.9299 13.93 38.822 10.5884C35.8962 7.44226 31.9891 5.46228 27.7552 4.96433V2.85407C37.9054 3.92116 45.7399 12.5483 45.7399 22.8512C45.7399 23.5392 45.7047 24.2335 45.6353 24.9145C45.6129 25.1343 45.6846 25.3535 45.8328 25.5175C45.9809 25.6814 46.1916 25.7751 46.4126 25.7751H47.2881L44.7765 28.965ZM7.85914 11.9388L11.0461 13.7788C11.1688 13.8497 11.3032 13.8836 11.4361 13.8836C11.6869 13.8836 11.9322 13.7628 12.0826 13.5417C13.2257 11.8613 14.647 10.4278 16.3068 9.28093C16.6416 9.04958 16.7427 8.59997 16.5392 8.24753L14.7118 5.08239C14.6038 4.89519 14.4229 4.7612 14.2125 4.71208C14.0018 4.66315 13.7805 4.70339 13.6009 4.82351C11.2148 6.41911 9.19586 8.43933 7.59996 10.8282C7.47994 11.0079 7.43971 11.2292 7.48873 11.4396C7.53805 11.6502 7.67203 11.8308 7.85914 11.9388ZM13.7845 6.60105L14.8333 8.41755C13.4561 9.45319 12.242 10.6778 11.2115 12.0701L9.3774 11.0112C10.613 9.3153 12.0906 7.83679 13.7845 6.60105ZM36.5155 33.0708L28.9833 37.4579C28.6967 37.6247 28.4063 37.7534 28.1072 37.8447C28.1989 37.6601 28.2741 37.4605 28.3314 37.2467C28.732 35.7515 27.8452 34.1912 26.3126 33.6944C26.2791 33.6836 26.2449 33.675 26.2103 33.6687C24.0548 33.28 21.9232 32.5092 20.2103 31.89C19.613 31.6741 19.0489 31.4701 18.5681 31.3142C16.5975 30.6749 14.8266 31.4602 13.3542 32.3129L7.84898 35.5003L7.37682 34.6659C7.12877 34.2276 6.72369 33.9118 6.23629 33.7766C5.74898 33.6418 5.23912 33.7039 4.80074 33.9518L2.68736 35.1479C1.78033 35.6613 1.46002 36.8169 1.9733 37.724L8.18648 48.7022C8.43453 49.1406 8.83961 49.4564 9.32701 49.5915C9.49557 49.6382 9.66676 49.6613 9.83678 49.6613C10.1584 49.6613 10.4758 49.5785 10.7626 49.4163L12.8759 48.2202C13.3142 47.972 13.63 47.5671 13.7652 47.0797C13.9003 46.5923 13.838 46.0824 13.59 45.644L13.0046 44.6095L14.1445 43.9513L23.7464 46.5242C24.2886 46.6695 24.8282 46.7418 25.3587 46.7418C26.4322 46.7418 27.4692 46.4463 28.4172 45.8626L42.0864 37.4457C43.3822 36.6479 43.7954 34.6409 42.9533 33.235C42.5458 32.5544 40.8766 30.531 36.5155 33.0708ZM12.2595 46.6624C12.2459 46.7117 12.2078 46.803 12.1064 46.8604L9.99303 48.0565C9.89176 48.114 9.79371 48.0996 9.7444 48.0858C9.69508 48.0721 9.60377 48.0341 9.54635 47.9327L3.33326 36.9545C3.24576 36.7999 3.3024 36.5953 3.45709 36.5078L5.57057 35.3117C5.62691 35.2799 5.68209 35.2701 5.72857 35.2701C5.76568 35.2701 5.79723 35.2762 5.8192 35.2824C5.86852 35.2961 5.95982 35.3341 6.01715 35.4354L12.2303 46.4136C12.2876 46.5151 12.2732 46.613 12.2595 46.6624ZM41.2672 36.1153L27.5982 44.5321C26.5417 45.1824 25.3819 45.3451 24.1509 45.015L14.2363 42.3584C14.036 42.3049 13.8229 42.3329 13.6435 42.4364L12.2349 43.2496L8.61861 36.8599L14.137 33.6648C15.3705 32.9507 16.7026 32.3514 18.086 32.8003C18.542 32.9482 19.0689 33.1386 19.679 33.3592C21.4323 33.9931 23.6107 34.7807 25.8755 35.1958C26.601 35.4535 27.0067 36.1533 26.8221 36.8422C26.5789 37.7496 25.8158 37.8625 25.2067 37.7931C24.104 37.5661 23.0539 37.2664 21.9429 36.9492C21.4134 36.798 20.866 36.6417 20.3028 36.4907C19.886 36.3793 19.4577 36.6264 19.346 37.0431C19.2343 37.4599 19.4817 37.8883 19.8984 38C20.4492 38.1475 20.9905 38.3021 21.5138 38.4516C22.6656 38.7805 24.953 39.336 24.9582 39.3368L25.8951 39.4892C27.3227 39.7174 28.5901 39.4948 29.7695 38.808L37.3017 34.4209C39.4095 33.1932 41.0212 33.0499 41.6129 34.0379C42.0171 34.7127 41.8427 35.761 41.2672 36.1153ZM6.12799 37.3337C6.18824 37.746 5.90289 38.1292 5.49059 38.1894C5.07828 38.2497 4.69508 37.9643 4.63482 37.5519C4.57457 37.1396 4.85992 36.7564 5.27223 36.6962C5.68453 36.636 6.06764 36.9214 6.12799 37.3337ZM32.2693 15.5304C32.2693 12.414 29.7338 9.87858 26.6174 9.87858C23.501 9.87858 20.9656 12.414 20.9656 15.5304C20.9656 17.4312 21.9097 19.1145 23.3527 20.1396C19.5592 21.3843 16.7089 24.746 16.2629 28.9145C16.2392 29.1349 16.3104 29.3549 16.4586 29.5198C16.6067 29.6846 16.8179 29.7789 17.0396 29.7789H36.195C36.4167 29.7789 36.6279 29.6847 36.776 29.5198C36.9242 29.3549 36.9954 29.1349 36.9717 28.9144C36.5255 24.746 33.6754 21.3844 29.882 20.1396C31.3251 19.1146 32.2693 17.4312 32.2693 15.5304ZM35.2829 28.2164H17.9518C18.7938 24.1509 22.3759 21.1832 26.6154 21.1822C26.6161 21.1822 26.6168 21.1823 26.6174 21.1823H26.6194C30.8587 21.1833 34.4409 24.1509 35.2829 28.2164ZM26.6173 19.6197C26.6165 19.6197 26.6157 19.6197 26.6148 19.6197C24.3612 19.6182 22.5281 17.7844 22.5281 15.5304C22.5281 13.2756 24.3626 11.4411 26.6174 11.4411C28.8723 11.4411 30.7068 13.2756 30.7068 15.5304C30.7068 17.7844 28.8737 19.6183 26.62 19.6197C26.6191 19.6198 26.6182 19.6197 26.6173 19.6197Z" fill="url(#paint0_linear_215_10558)"/>
<defs>
<linearGradient id="paint0_linear_215_10558" x1="1.72852" y1="25.4422" x2="49.2339" y2="25.4422" gradientUnits="userSpaceOnUse">
<stop stop-color="#1956C1"/>
<stop offset="1" stop-color="#E2403B"/>
</linearGradient>
</defs>
</svg>
