<svg width="51" height="51" viewBox="0 0 51 51" fill="none" xmlns="http://www.w3.org/2000/svg">
<path d="M4.64831 25.4425C4.64775 21.5302 5.74897 17.6969 7.82586 14.3814C9.90276 11.066 12.8714 8.40243 16.3918 6.6958C19.9122 4.98917 23.842 4.30845 27.7313 4.73159C31.6206 5.15473 35.3121 6.66462 38.3832 9.08837H35.2141C34.9396 9.09103 34.6772 9.20194 34.4841 9.397C34.2909 9.59206 34.1825 9.85549 34.1825 10.13C34.1825 10.4046 34.2909 10.668 34.4841 10.863C34.6772 11.0581 34.9396 11.169 35.2141 11.1717H41.1066C41.3829 11.1717 41.6478 11.0619 41.8432 10.8666C42.0386 10.6712 42.1483 10.4062 42.1483 10.13V4.2373C42.1496 4.09966 42.1237 3.96312 42.0719 3.83557C42.0202 3.70802 41.9437 3.59199 41.8468 3.49419C41.75 3.39639 41.6347 3.31876 41.5076 3.26577C41.3806 3.21279 41.2443 3.18551 41.1067 3.18551C40.969 3.18551 40.8327 3.21279 40.7057 3.26577C40.5787 3.31876 40.4634 3.39639 40.3665 3.49419C40.2697 3.59199 40.1931 3.70802 40.1414 3.83557C40.0896 3.96312 40.0637 4.09966 40.065 4.2373V7.76464C35.5229 4.0177 29.7127 2.16286 23.8397 2.58485C17.9667 3.00683 12.4814 5.67324 8.52158 10.0311C4.56176 14.3889 2.43127 20.1037 2.57198 25.9902C2.71269 31.8767 5.11381 37.4831 9.27732 41.6468C9.37362 41.7453 9.48853 41.8238 9.61537 41.8776C9.74222 41.9314 9.87848 41.9596 10.0163 41.9604C10.1541 41.9612 10.2907 41.9346 10.4181 41.8822C10.5456 41.8299 10.6614 41.7527 10.7588 41.6553C10.8562 41.5579 10.9334 41.4421 10.9857 41.3146C11.0381 41.1872 11.0647 41.0506 11.0639 40.9128C11.0631 40.775 11.0349 40.6387 10.9811 40.5119C10.9273 40.385 10.8488 40.2701 10.7503 40.1738C8.80966 38.2438 7.27113 35.948 6.22373 33.4193C5.17633 30.8907 4.64086 28.1794 4.64831 25.4425Z" fill="url(#paint0_linear_215_10564)"/>
<path d="M16.3773 44.1876C15.7863 43.9002 15.2013 43.5803 14.639 43.2375C14.4032 43.0936 14.1199 43.0492 13.8514 43.1142C13.5829 43.1791 13.3512 43.3481 13.2073 43.5839C13.0633 43.8197 13.0189 44.103 13.0839 44.3715C13.1488 44.64 13.3178 44.8717 13.5536 45.0157C14.1726 45.3936 14.8165 45.745 15.4671 46.0614C15.5901 46.1211 15.7237 46.1561 15.8602 46.1642C15.9968 46.1724 16.1336 46.1536 16.2629 46.1088C16.3921 46.0641 16.5113 45.9944 16.6136 45.9036C16.7159 45.8128 16.7994 45.7027 16.8592 45.5797C16.9189 45.4567 16.9539 45.3231 16.9621 45.1865C16.9702 45.05 16.9514 44.9132 16.9066 44.7839C16.8619 44.6547 16.7922 44.5355 16.7014 44.4331C16.6106 44.3308 16.5005 44.2474 16.3775 44.1876H16.3773Z" fill="url(#paint1_linear_215_10564)"/>
<path d="M44.2363 16.3573C44.296 16.4804 44.3793 16.5906 44.4815 16.6815C44.5837 16.7724 44.7028 16.8423 44.832 16.8872C44.9612 16.9321 45.098 16.9511 45.2346 16.9431C45.3712 16.9352 45.5048 16.9004 45.6279 16.8407C45.751 16.7811 45.8612 16.6978 45.9521 16.5956C46.043 16.4934 46.1129 16.3743 46.1578 16.245C46.2027 16.1158 46.2217 15.979 46.2137 15.8425C46.2058 15.7059 46.171 15.5722 46.1113 15.4491C45.7975 14.8006 45.4466 14.1567 45.0687 13.5351C44.9975 13.4182 44.9041 13.3164 44.7937 13.2357C44.6833 13.1549 44.558 13.0966 44.4251 13.0643C44.1566 12.9989 43.8732 13.0428 43.6371 13.1864C43.401 13.33 43.2317 13.5615 43.1663 13.83C43.1009 14.0985 43.1449 14.3819 43.2885 14.618C43.632 15.1831 43.951 15.7684 44.2363 16.3573Z" fill="url(#paint2_linear_215_10564)"/>
<path d="M27.9525 46.1295C27.2948 46.2076 26.6295 46.2541 25.9744 46.2699C25.7032 46.2803 25.4467 46.3962 25.2596 46.5928C25.0725 46.7895 24.9696 47.0515 24.9727 47.3229C24.9759 47.5943 25.0849 47.8538 25.2765 48.0461C25.4681 48.2383 25.7272 48.3482 25.9986 48.3523C26.0067 48.3523 26.0154 48.3523 26.0235 48.3518C26.7438 48.335 27.4746 48.2834 28.1969 48.1982C28.471 48.1655 28.721 48.0253 28.8918 47.8085C29.0627 47.5917 29.1405 47.3159 29.1082 47.0417C29.0758 46.7675 28.936 46.5174 28.7193 46.3463C28.5027 46.1752 28.227 46.0971 27.9527 46.1291L27.9525 46.1295Z" fill="url(#paint3_linear_215_10564)"/>
<path d="M22.0246 45.9885C21.3767 45.8802 20.7251 45.7392 20.0883 45.5685C19.8214 45.4972 19.537 45.5348 19.2977 45.6731C19.0585 45.8114 18.884 46.0391 18.8127 46.3061C18.7413 46.5731 18.7789 46.8574 18.9173 47.0967C19.0556 47.3359 19.2833 47.5104 19.5502 47.5817C20.2511 47.7689 20.9683 47.924 21.6819 48.0431C21.8168 48.0656 21.9548 48.0613 22.0881 48.0304C22.2214 47.9996 22.3473 47.9428 22.4586 47.8633C22.5699 47.7838 22.6645 47.6832 22.7369 47.5671C22.8093 47.4511 22.8582 47.3219 22.8807 47.187C22.9032 47.0521 22.8989 46.914 22.8681 46.7808C22.8372 46.6475 22.7804 46.5216 22.701 46.4103C22.6215 46.299 22.5208 46.2044 22.4048 46.132C22.2887 46.0595 22.1596 46.0107 22.0246 45.9882V45.9885Z" fill="url(#paint4_linear_215_10564)"/>
<path d="M47.3756 24.9402C47.0994 24.9335 46.8319 25.0367 46.6318 25.2272C46.4317 25.4176 46.3154 25.6797 46.3085 25.9559C46.2917 26.6146 46.2439 27.2798 46.1655 27.9339C46.1329 28.2082 46.2105 28.4843 46.3813 28.7015C46.5521 28.9186 46.8021 29.0591 47.0764 29.092C47.118 29.0966 47.1597 29.099 47.2015 29.0991C47.4561 29.0988 47.7018 29.0052 47.8921 28.836C48.0824 28.6669 48.2042 28.434 48.2346 28.1812C48.32 27.4625 48.3729 26.7316 48.3908 26.0078C48.3943 25.8711 48.3708 25.7349 48.3216 25.6073C48.2725 25.4796 48.1987 25.3628 48.1044 25.2637C48.0101 25.1645 47.8972 25.0849 47.7722 25.0295C47.6471 24.974 47.5123 24.9436 47.3756 24.9402Z" fill="url(#paint5_linear_215_10564)"/>
<path d="M44.1777 36.8549C43.9491 36.7 43.6684 36.642 43.3971 36.6938C43.1258 36.7456 42.8862 36.9028 42.7307 37.1311C42.3604 37.6758 41.9601 38.2094 41.54 38.7164C41.4506 38.8215 41.3831 38.9433 41.3412 39.0747C41.2993 39.206 41.2839 39.3444 41.296 39.4818C41.308 39.6192 41.3472 39.7528 41.4113 39.8749C41.4754 39.997 41.5631 40.1052 41.6693 40.1931C41.7755 40.2811 41.8981 40.347 42.0301 40.3872C42.162 40.4274 42.3006 40.4409 42.4378 40.4271C42.575 40.4133 42.7081 40.3724 42.8293 40.3067C42.9506 40.241 43.0576 40.1519 43.1442 40.0446C43.606 39.4871 44.047 38.9006 44.4538 38.3015C44.5307 38.1884 44.5845 38.0613 44.6122 37.9273C44.64 37.7934 44.641 37.6554 44.6154 37.521C44.5898 37.3867 44.5379 37.2587 44.4628 37.1444C44.3877 37.0302 44.2909 36.9318 44.1777 36.8549Z" fill="url(#paint6_linear_215_10564)"/>
<path d="M45.613 20.0685C45.7819 20.7028 45.9223 21.3544 46.0306 22.0053C46.071 22.2485 46.1962 22.4695 46.3841 22.629C46.5721 22.7886 46.8105 22.8763 47.057 22.8766C47.1144 22.8765 47.1717 22.8718 47.2283 22.8624C47.3633 22.84 47.4926 22.7912 47.6087 22.7189C47.7248 22.6466 47.8255 22.5521 47.9051 22.4408C47.9847 22.3295 48.0416 22.2036 48.0725 22.0703C48.1035 21.9371 48.1078 21.799 48.0854 21.664C47.9668 20.9479 47.8119 20.2304 47.6264 19.5324C47.5553 19.2654 47.3811 19.0376 47.142 18.8991C46.903 18.7606 46.6187 18.7228 46.3517 18.7939C46.0848 18.865 45.857 19.0392 45.7185 19.2783C45.58 19.5173 45.5421 19.8016 45.6132 20.0685H45.613Z" fill="url(#paint7_linear_215_10564)"/>
<path d="M38.7378 41.5157C38.2286 41.9368 37.6951 42.337 37.1524 42.7048C37.0392 42.7816 36.9422 42.8799 36.867 42.9941C36.7918 43.1083 36.7398 43.2362 36.714 43.3706C36.6882 43.5049 36.6891 43.643 36.7167 43.7769C36.7443 43.9109 36.798 44.0381 36.8747 44.1513C36.9515 44.2646 37.0498 44.3615 37.164 44.4368C37.2782 44.512 37.4062 44.564 37.5405 44.5898C37.6748 44.6156 37.8129 44.6146 37.9469 44.5871C38.0808 44.5595 38.2081 44.5058 38.3213 44.429C38.9184 44.0246 39.5049 43.5847 40.0653 43.1219C40.2783 42.9459 40.4127 42.6924 40.4388 42.4173C40.4649 42.1422 40.3807 41.868 40.2047 41.655C40.0286 41.442 39.7752 41.3077 39.5001 41.2815C39.225 41.2554 38.9508 41.3396 38.7378 41.5157Z" fill="url(#paint8_linear_215_10564)"/>
<path d="M46.6318 31.127C46.3686 31.0435 46.0831 31.0677 45.8377 31.1944C45.5924 31.3211 45.4074 31.54 45.3232 31.803C45.1238 32.428 44.8909 33.0522 44.6309 33.659C44.5741 33.7851 44.543 33.9213 44.5394 34.0596C44.5358 34.1979 44.5598 34.3356 44.61 34.4645C44.6602 34.5934 44.7356 34.7111 44.8317 34.8106C44.9279 34.91 45.0429 34.9893 45.17 35.0439C45.2972 35.0984 45.4339 35.1271 45.5723 35.1282C45.7106 35.1293 45.8478 35.1028 45.9758 35.0503C46.1038 34.9978 46.2201 34.9203 46.3178 34.8223C46.4155 34.7244 46.4928 34.608 46.545 34.4799C46.8319 33.812 47.0883 33.1239 47.3074 32.4357C47.349 32.3054 47.3646 32.1682 47.3532 32.0319C47.3418 31.8956 47.3036 31.7629 47.2408 31.6414C47.1781 31.5198 47.092 31.4119 46.9875 31.3236C46.883 31.2353 46.7621 31.1686 46.6318 31.127Z" fill="url(#paint9_linear_215_10564)"/>
<path d="M33.6783 44.6007C33.0776 44.8581 32.453 45.0906 31.8219 45.2919C31.6915 45.3335 31.5707 45.4003 31.4662 45.4885C31.3617 45.5768 31.2756 45.6848 31.2128 45.8063C31.1501 45.9278 31.1118 46.0605 31.1004 46.1968C31.0889 46.3331 31.1043 46.4703 31.1459 46.6006C31.1874 46.7309 31.2542 46.8518 31.3425 46.9563C31.4307 47.0608 31.5387 47.1469 31.6602 47.2097C31.7818 47.2724 31.9145 47.3106 32.0507 47.3221C32.187 47.3336 32.3243 47.3182 32.4546 47.2766C33.1488 47.0553 33.8365 46.7996 34.4982 46.5163C34.7522 46.4075 34.9526 46.2022 35.0553 45.9457C35.158 45.6892 35.1546 45.4024 35.0458 45.1483C34.9371 44.8943 34.7318 44.6939 34.4753 44.5912C34.2188 44.4885 33.9319 44.4919 33.6779 44.6007H33.6783Z" fill="url(#paint10_linear_215_10564)"/>
<path d="M16.6718 23.314C16.6718 21.6068 15.5492 20.2388 13.8118 19.8287C12.8574 19.6026 11.8544 19.7068 10.9668 20.1241C10.0791 20.5415 9.35918 21.2474 8.92441 22.1266C8.80267 22.3735 8.78361 22.6586 8.87139 22.9195C8.95917 23.1804 9.14666 23.396 9.39288 23.5191C9.63911 23.6423 9.92406 23.6629 10.1855 23.5766C10.4469 23.4903 10.6635 23.304 10.788 23.0585C11.0104 22.5969 11.3845 22.2257 11.8478 22.0069C12.311 21.7881 12.8354 21.7349 13.3331 21.8563C13.6276 21.9258 14.5884 22.2365 14.5884 23.314C14.5884 24.4005 13.3336 25.2385 12.0051 26.1258C10.5092 27.1242 8.81445 28.2558 8.81445 30.1297C8.81445 30.4059 8.9242 30.6709 9.11956 30.8663C9.31492 31.0616 9.57988 31.1714 9.85615 31.1714H15.6301C15.7677 31.1727 15.9043 31.1467 16.0318 31.095C16.1594 31.0432 16.2754 30.9667 16.3732 30.8699C16.471 30.773 16.5486 30.6577 16.6016 30.5307C16.6546 30.4036 16.6819 30.2674 16.6819 30.1297C16.6819 29.9921 16.6546 29.8558 16.6016 29.7287C16.5486 29.6017 16.471 29.4864 16.3732 29.3896C16.2754 29.2927 16.1594 29.2162 16.0318 29.1644C15.9043 29.1127 15.7677 29.0867 15.6301 29.0881H11.5031C11.9396 28.6746 12.5564 28.2626 13.1617 27.8582C14.8073 26.7595 16.6718 25.5144 16.6718 23.314Z" fill="url(#paint11_linear_215_10564)"/>
<path d="M26.5229 26.7445C26.5228 26.4683 26.4131 26.2033 26.2177 26.008C26.0224 25.8127 25.7574 25.7029 25.4812 25.7029H24.6348V20.1691C24.6347 19.9533 24.5677 19.7429 24.443 19.5669C24.3183 19.3909 24.142 19.2579 23.9384 19.1864C23.7349 19.1148 23.5142 19.1083 23.3067 19.1675C23.0993 19.2268 22.9154 19.349 22.7804 19.5173L17.507 26.0931C17.3843 26.2463 17.3074 26.431 17.2851 26.626C17.2628 26.821 17.296 27.0183 17.3809 27.1952C17.4659 27.3722 17.5991 27.5215 17.7651 27.6261C17.9312 27.7306 18.1235 27.7862 18.3197 27.7862H22.5515V30.7159C22.5502 30.8536 22.5761 30.9901 22.6279 31.1177C22.6796 31.2452 22.7561 31.3612 22.853 31.459C22.9498 31.5568 23.0651 31.6345 23.1922 31.6875C23.3192 31.7404 23.4555 31.7677 23.5931 31.7677C23.7308 31.7677 23.8671 31.7404 23.9941 31.6875C24.1211 31.6345 24.2364 31.5568 24.3333 31.459C24.4301 31.3612 24.5067 31.2452 24.5584 31.1177C24.6102 30.9901 24.6361 30.8536 24.6348 30.7159V27.7862H25.4812C25.7575 27.7862 26.0224 27.6765 26.2178 27.4811C26.4131 27.2858 26.5229 27.0208 26.5229 26.7445ZM22.5515 25.7029H20.4909L22.5515 23.1328V25.7029Z" fill="url(#paint12_linear_215_10564)"/>
<path d="M31.8544 18.5616C31.7203 18.5345 31.5821 18.5341 31.4478 18.5606C31.3135 18.587 31.1857 18.6397 31.0719 18.7156C30.958 18.7915 30.8602 18.8892 30.7841 19.003C30.7081 19.1168 30.6553 19.2444 30.6287 19.3787L28.2849 31.0975C28.2307 31.3683 28.2863 31.6497 28.4395 31.8795C28.5927 32.1094 28.8309 32.269 29.1018 32.3232C29.1693 32.3367 29.238 32.3435 29.3069 32.3435C29.5475 32.3433 29.7806 32.2598 29.9665 32.1071C30.1525 31.9545 30.28 31.7423 30.3272 31.5063L32.6709 19.7876C32.6979 19.6535 32.6981 19.5154 32.6717 19.3812C32.6452 19.247 32.5926 19.1193 32.5167 19.0054C32.4409 18.8916 32.3434 18.7938 32.2297 18.7176C32.1161 18.6415 31.9886 18.5885 31.8544 18.5616Z" fill="url(#paint13_linear_215_10564)"/>
<path d="M37.2001 31.1718C37.4058 31.1717 37.6069 31.1107 37.778 30.9966C37.9491 30.8824 38.0827 30.7202 38.1619 30.5304L42.0681 21.1554C42.1342 20.9971 42.1601 20.8249 42.1436 20.6542C42.1272 20.4835 42.0688 20.3195 41.9737 20.1768C41.8785 20.034 41.7496 19.917 41.5984 19.8361C41.4472 19.7552 41.2783 19.7128 41.1068 19.7129H35.8334C35.5589 19.7155 35.2965 19.8265 35.1033 20.0215C34.9101 20.2166 34.8018 20.48 34.8018 20.7545C34.8018 21.0291 34.9101 21.2925 35.1033 21.4876C35.2965 21.6826 35.5589 21.7935 35.8334 21.7962H39.5443L36.2392 29.7292C36.1735 29.8875 36.1478 30.0595 36.1644 30.2301C36.181 30.4007 36.2393 30.5646 36.3343 30.7073C36.4293 30.8499 36.558 30.967 36.709 31.0481C36.86 31.1292 37.0287 31.1718 37.2001 31.1722V31.1718Z" fill="url(#paint14_linear_215_10564)"/>
<defs>
<linearGradient id="paint0_linear_215_10564" x1="2.56543" y1="22.2431" x2="42.1484" y2="22.2431" gradientUnits="userSpaceOnUse">
<stop stop-color="#1956C1"/>
<stop offset="1" stop-color="#E2403B"/>
</linearGradient>
<linearGradient id="paint1_linear_215_10564" x1="13.0547" y1="44.6255" x2="16.9639" y2="44.6255" gradientUnits="userSpaceOnUse">
<stop stop-color="#1956C1"/>
<stop offset="1" stop-color="#E2403B"/>
</linearGradient>
<linearGradient id="paint2_linear_215_10564" x1="43.1367" y1="14.9898" x2="46.2155" y2="14.9898" gradientUnits="userSpaceOnUse">
<stop stop-color="#1956C1"/>
<stop offset="1" stop-color="#E2403B"/>
</linearGradient>
<linearGradient id="paint3_linear_215_10564" x1="24.9727" y1="47.2372" x2="29.1153" y2="47.2372" gradientUnits="userSpaceOnUse">
<stop stop-color="#1956C1"/>
<stop offset="1" stop-color="#E2403B"/>
</linearGradient>
<linearGradient id="paint4_linear_215_10564" x1="18.7773" y1="46.7952" x2="22.8949" y2="46.7952" gradientUnits="userSpaceOnUse">
<stop stop-color="#1956C1"/>
<stop offset="1" stop-color="#E2403B"/>
</linearGradient>
<linearGradient id="paint5_linear_215_10564" x1="46.1582" y1="27.0195" x2="48.3911" y2="27.0195" gradientUnits="userSpaceOnUse">
<stop stop-color="#1956C1"/>
<stop offset="1" stop-color="#E2403B"/>
</linearGradient>
<linearGradient id="paint6_linear_215_10564" x1="41.292" y1="38.5538" x2="44.6339" y2="38.5538" gradientUnits="userSpaceOnUse">
<stop stop-color="#1956C1"/>
<stop offset="1" stop-color="#E2403B"/>
</linearGradient>
<linearGradient id="paint7_linear_215_10564" x1="45.5781" y1="20.8177" x2="48.0995" y2="20.8177" gradientUnits="userSpaceOnUse">
<stop stop-color="#1956C1"/>
<stop offset="1" stop-color="#E2403B"/>
</linearGradient>
<linearGradient id="paint8_linear_215_10564" x1="36.6953" y1="42.9427" x2="40.4435" y2="42.9427" gradientUnits="userSpaceOnUse">
<stop stop-color="#1956C1"/>
<stop offset="1" stop-color="#E2403B"/>
</linearGradient>
<linearGradient id="paint9_linear_215_10564" x1="44.5391" y1="33.1032" x2="47.3568" y2="33.1032" gradientUnits="userSpaceOnUse">
<stop stop-color="#1956C1"/>
<stop offset="1" stop-color="#E2403B"/>
</linearGradient>
<linearGradient id="paint10_linear_215_10564" x1="31.0967" y1="45.9212" x2="35.13" y2="45.9212" gradientUnits="userSpaceOnUse">
<stop stop-color="#1956C1"/>
<stop offset="1" stop-color="#E2403B"/>
</linearGradient>
<linearGradient id="paint11_linear_215_10564" x1="8.81445" y1="25.4417" x2="16.6819" y2="25.4417" gradientUnits="userSpaceOnUse">
<stop stop-color="#1956C1"/>
<stop offset="1" stop-color="#E2403B"/>
</linearGradient>
<linearGradient id="paint12_linear_215_10564" x1="17.2783" y1="25.4476" x2="26.5229" y2="25.4476" gradientUnits="userSpaceOnUse">
<stop stop-color="#1956C1"/>
<stop offset="1" stop-color="#E2403B"/>
</linearGradient>
<linearGradient id="paint13_linear_215_10564" x1="28.2646" y1="25.4423" x2="32.6913" y2="25.4423" gradientUnits="userSpaceOnUse">
<stop stop-color="#1956C1"/>
<stop offset="1" stop-color="#E2403B"/>
</linearGradient>
<linearGradient id="paint14_linear_215_10564" x1="34.8018" y1="25.4425" x2="42.1485" y2="25.4425" gradientUnits="userSpaceOnUse">
<stop stop-color="#1956C1"/>
<stop offset="1" stop-color="#E2403B"/>
</linearGradient>
</defs>
</svg>
