<svg width="50" height="51" viewBox="0 0 50 51" fill="none" xmlns="http://www.w3.org/2000/svg">
<g clip-path="url(#clip0_229_37892)">
<path fill-rule="evenodd" clip-rule="evenodd" d="M34.9684 14.2707C24.6371 23.8417 14.1458 28.6771 4.60897 31.6966C4.19623 31.8273 3.75515 31.5982 3.62446 31.1856C3.49378 30.7729 3.7228 30.3318 4.13545 30.2011C13.5004 27.236 23.806 22.4883 33.9506 13.0752C33.7498 11.804 33.5161 8.45031 35.8991 5.52864C37.8241 3.16835 41.5014 1.03766 48.4922 0.703052C48.7783 0.689327 49.0491 0.832758 49.1987 1.07707C49.3482 1.32139 49.3526 1.62786 49.2102 1.87639C49.2102 1.87639 46.4647 6.65237 45.7594 9.08766C45.094 11.3851 43.9555 12.7954 42.6727 13.6485C39.8345 15.5362 36.1902 14.6432 34.9684 14.2707ZM36.2347 12.9925C37.5999 13.3152 39.9186 13.5964 41.804 12.3425C42.8357 11.6562 43.7174 10.4991 44.2526 8.65129C44.7569 6.91011 46.2505 4.02237 47.1465 2.36707C41.7209 2.8555 38.7231 4.54786 37.1147 6.52001C35.6604 8.30305 35.3775 10.279 35.3942 11.616C36.616 10.4017 38.6404 8.51452 40.7243 7.11178C41.0833 6.87001 41.5711 6.96531 41.8129 7.32442C42.0546 7.68344 41.9593 8.17129 41.6003 8.41305C39.4457 9.86335 37.3588 11.8558 36.2347 12.9925ZM46.2669 45.4051H48.5297C48.9628 45.4051 49.314 45.7563 49.314 46.1894V48.5453C49.314 48.9784 48.9628 49.3296 48.5297 49.3296H1.47084C1.0377 49.3296 0.686523 48.9784 0.686523 48.5453V46.1894C0.686523 45.7563 1.0377 45.4051 1.47084 45.4051H3.73358V34.8832C3.73358 34.4501 4.08476 34.0989 4.5179 34.0989H10.7519C11.1851 34.0989 11.5362 34.4501 11.5362 34.8832V45.4051H15.3114V28.6143C15.3114 28.1811 15.6625 27.83 16.0957 27.83H22.3297C22.7629 27.83 23.114 28.1811 23.114 28.6143V45.4051H26.8865V22.071C26.8865 21.6379 27.2376 21.2867 27.6708 21.2867H33.9075C34.3406 21.2867 34.6918 21.6379 34.6918 22.071V45.4051H38.4643V16.1839C38.4643 15.7508 38.8154 15.3996 39.2486 15.3996H45.4826C45.9157 15.3996 46.2669 15.7508 46.2669 16.1839V45.4051ZM5.30221 45.4051H9.9676V35.6676H5.30221V45.4051ZM16.8801 45.4051H21.5453V29.3986H16.8801V45.4051ZM28.4552 45.4051H33.1232C33.1232 41.3401 33.1232 22.8553 33.1232 22.8553H28.4552V45.4051ZM40.0329 45.4051H44.6983V16.9682H40.0329V45.4051ZM2.25515 47.761H47.7453V46.9737H2.25515V47.761ZM22.2511 17.6704C22.6256 17.6279 22.9872 17.8613 23.0935 18.2357C23.2117 18.6522 22.9696 19.0862 22.5531 19.2043L20.5209 19.7811C20.2918 19.8462 20.0454 19.8035 19.8515 19.6652C19.6575 19.5269 19.5369 19.3079 19.5237 19.07L19.4068 16.9609C19.3829 16.5286 19.7143 16.1583 20.1465 16.1343C20.5425 16.1124 20.8865 16.3887 20.9599 16.7677C21.7415 15.371 22.1864 13.7669 22.1864 12.0613C22.1864 6.65423 17.7175 2.2708 12.2208 2.2708C11.6054 2.2708 11.003 2.3256 10.4183 2.4307C9.99221 2.50727 9.58417 2.22354 9.5076 1.79756C9.43103 1.37148 9.71476 0.963444 10.1407 0.886876C10.8155 0.765601 11.5107 0.70217 12.2208 0.70217C18.5903 0.70217 23.7551 5.7956 23.7551 12.0613C23.7551 14.1004 23.2084 16.0149 22.2511 17.6704ZM2.21094 6.41688C1.82113 6.47609 1.44035 6.23344 1.33623 5.84374C1.22446 5.4255 1.47329 4.99531 1.89152 4.88354L3.93231 4.33825C4.1625 4.27678 4.40809 4.32315 4.59995 4.46452C4.79172 4.6058 4.90897 4.82658 4.91848 5.06462L5.0028 7.17541C5.02005 7.60795 4.6829 7.97305 4.25035 7.99041C3.8727 8.0055 3.54633 7.75031 3.45819 7.39727C2.69113 8.78393 2.25515 10.373 2.25515 12.0613C2.25515 17.4684 6.72417 21.8518 12.2208 21.8518C12.8361 21.8518 13.4386 21.797 14.0234 21.6919C14.4494 21.6153 14.8575 21.899 14.9341 22.3251C15.0106 22.7511 14.7268 23.1592 14.3008 23.2358C13.626 23.357 12.9309 23.4204 12.2208 23.4204C5.85133 23.4204 0.686523 18.327 0.686523 12.0613C0.686523 10.0077 1.24103 8.08041 2.21094 6.41688ZM12.2208 20.5368C7.5528 20.5368 3.74535 16.7293 3.74535 12.0613C3.74535 7.39325 7.5528 3.5858 12.2208 3.5858C16.8889 3.5858 20.6963 7.39325 20.6963 12.0613C20.6963 16.7293 16.8889 20.5368 12.2208 20.5368ZM12.2208 18.9682C16.0249 18.9682 19.1277 15.8654 19.1277 12.0613C19.1277 8.25717 16.0249 5.15442 12.2208 5.15442C8.41672 5.15442 5.31397 8.25717 5.31397 12.0613C5.31397 15.8654 8.41672 18.9682 12.2208 18.9682ZM11.4365 7.59217V7.1959C11.4365 6.76295 11.7879 6.41158 12.2208 6.41158C12.6537 6.41158 13.0052 6.76295 13.0052 7.1959V7.58325C13.9245 7.78884 14.772 8.37972 15.2098 9.42266C15.3772 9.82188 15.1892 10.2819 14.7901 10.4494C14.3908 10.6169 13.9308 10.4288 13.7633 10.0297C13.3672 9.0859 12.3085 8.89688 11.5491 9.1956C11.1188 9.36492 10.7699 9.70884 10.795 10.2139L10.7951 10.2158C10.8135 10.6069 11.0703 10.8279 11.3725 10.9754C11.6748 11.1231 12.0246 11.2052 12.3546 11.2589L12.3559 11.2591C13.7405 11.4871 15.2547 12.1222 15.4527 13.7681C15.6467 15.3706 14.3621 16.3024 13.0052 16.5548V16.9293C13.0052 17.3622 12.6537 17.7136 12.2208 17.7136C11.7879 17.7136 11.4365 17.3622 11.4365 16.9293V16.5433C10.2872 16.3039 9.29829 15.5453 8.99358 14.3212C8.88907 13.9012 9.14515 13.4753 9.56525 13.3707C9.98535 13.2662 10.4112 13.5223 10.5157 13.9424C10.714 14.7385 11.5229 15.0753 12.3015 15.056H12.3033C12.7251 15.0465 13.1949 14.9429 13.5406 14.7044C13.7762 14.542 13.9369 14.2989 13.8954 13.9565L13.8953 13.9556C13.8415 13.5079 13.534 13.2641 13.1797 13.1032C12.8425 12.95 12.4596 12.866 12.1024 12.8072C10.7458 12.5862 9.30417 11.8985 9.22819 10.29C9.1677 9.05707 9.92397 8.14923 10.9749 7.7358C11.1237 7.67727 11.2782 7.62933 11.4365 7.59217Z" fill="url(#paint0_linear_229_37892)"/>
</g>
<defs>
<linearGradient id="paint0_linear_229_37892" x1="0.686523" y1="25.0159" x2="49.314" y2="25.0159" gradientUnits="userSpaceOnUse">
<stop stop-color="#1956C1"/>
<stop offset="1" stop-color="#E2403B"/>
</linearGradient>
<clipPath id="clip0_229_37892">
<rect width="50" height="50" fill="white" transform="translate(0 0.015625)"/>
</clipPath>
</defs>
</svg>
