<svg width="51" height="51" viewBox="0 0 51 51" fill="none" xmlns="http://www.w3.org/2000/svg">
<path d="M14.9631 24.6174C15.941 24.6174 16.8155 24.1668 17.3904 23.4625L22.9518 26.0239C22.9189 26.2056 22.9008 26.3923 22.9008 26.5832C22.9008 28.3106 24.3063 29.7161 26.0337 29.7161C27.7612 29.7161 29.1666 28.3106 29.1666 26.5832C29.1666 26.0603 29.0371 25.5672 28.8096 25.1334L38.9667 15.9804L38.8079 17.9274C38.7729 18.3574 39.0931 18.7346 39.5231 18.7696C39.5448 18.7714 39.566 18.7723 39.5874 18.7723C39.9901 18.7723 40.3319 18.4629 40.3653 18.0545L40.6936 14.0301C40.7126 13.7966 40.6259 13.5669 40.4573 13.4043C40.2888 13.2418 40.0574 13.1632 39.8234 13.1907L35.8134 13.6637C35.3849 13.7143 35.0785 14.1025 35.129 14.5311C35.1795 14.9596 35.5678 15.266 35.9965 15.2154L37.7054 15.0139L27.7635 23.9729C27.2674 23.6432 26.6728 23.4505 26.0338 23.4505C25.0559 23.4505 24.1815 23.9011 23.6065 24.6054L18.045 22.0439C18.078 21.8623 18.096 21.6756 18.096 21.4846C18.096 19.7571 16.6906 18.3517 14.9631 18.3517C13.2357 18.3517 11.8302 19.757 11.8302 21.4846C11.8302 21.7724 11.8699 22.0509 11.943 22.3158L1.64368 28.2213C1.26936 28.4359 1.13997 28.9133 1.35452 29.2876C1.49895 29.5394 1.76223 29.6804 2.03303 29.6804C2.16477 29.6804 2.29837 29.647 2.42093 29.5767L12.7217 23.6701C13.2911 24.254 14.0853 24.6174 14.9631 24.6174ZM26.0337 25.0128C26.8996 25.0128 27.6041 25.7173 27.6041 26.5832C27.6041 27.4491 26.8996 28.1536 26.0337 28.1536C25.1678 28.1536 24.4633 27.4491 24.4633 26.5832C24.4633 25.7173 25.1678 25.0128 26.0337 25.0128ZM14.9631 19.9141C15.829 19.9141 16.5335 20.6186 16.5335 21.4845C16.5335 22.3504 15.829 23.0549 14.9631 23.0549C14.0972 23.0549 13.3927 22.3504 13.3927 21.4845C13.3927 20.6186 14.0972 19.9141 14.9631 19.9141ZM41.9295 36.5311C42.0126 37.2146 41.8281 37.8397 41.396 38.3394C40.9508 38.8541 40.2458 39.2144 39.4379 39.3554V39.7462C39.4379 40.1776 39.0881 40.5274 38.6567 40.5274C38.2252 40.5274 37.8754 40.1776 37.8754 39.7462V39.3427C36.6322 39.0911 35.6783 38.2537 35.3874 37.0875C35.2831 36.6688 35.5378 36.2449 35.9565 36.1405C36.3754 36.036 36.7991 36.2909 36.9035 36.7096C37.1215 37.5845 38.0299 37.8746 38.7402 37.858C39.3548 37.8434 39.9471 37.6261 40.2142 37.3173C40.3558 37.1535 40.408 36.9635 40.3784 36.7194C40.3276 36.3007 40.0724 35.7877 38.5372 35.5356C36.2149 35.1543 35.6724 33.9406 35.6263 32.9897C35.5626 31.679 36.4658 30.5823 37.8753 30.2563V29.8396C37.8753 29.4082 38.2251 29.0584 38.6566 29.0584C39.088 29.0584 39.4378 29.4082 39.4378 29.8396V30.2494C40.3533 30.4501 41.2262 31.0286 41.6814 32.1126C41.8485 32.5104 41.6614 32.9684 41.2635 33.1354C40.8661 33.3023 40.4077 33.1154 40.2408 32.7175C39.8712 31.8374 38.9677 31.6108 38.2362 31.7767C38.0537 31.8181 37.1458 32.0673 37.1869 32.9139C37.1979 33.1391 37.2269 33.737 38.7905 33.9938C40.7072 34.3085 41.7634 35.1621 41.9295 36.5311ZM38.6567 26.1842C33.9098 26.1842 30.0479 30.046 30.0479 34.7929C30.0479 39.5397 33.9098 43.4017 38.6567 43.4017C43.4034 43.4017 47.2654 39.5398 47.2654 34.7929C47.2655 30.046 43.4035 26.1842 38.6567 26.1842ZM38.6567 41.8392C34.7713 41.8392 31.6104 38.6782 31.6104 34.7929C31.6104 30.9075 34.7713 27.7467 38.6567 27.7467C42.5419 27.7467 45.7029 30.9076 45.7029 34.7929C45.7029 38.6781 42.5419 41.8392 38.6567 41.8392ZM38.6567 23.7609C32.5736 23.7609 27.6246 28.7099 27.6246 34.7929C27.6246 40.8759 32.5736 45.8248 38.6567 45.8248C44.7397 45.8248 49.6886 40.8759 49.6886 34.7929C49.6886 28.7099 44.7397 23.7609 38.6567 23.7609ZM38.6567 44.2624C33.4351 44.2624 29.1871 40.0144 29.1871 34.793C29.1871 29.5716 33.4351 25.3235 38.6567 25.3235C43.8782 25.3235 48.1261 29.5716 48.1261 34.793C48.1261 40.0144 43.8782 44.2624 38.6567 44.2624ZM19.2285 36.4403C20.7941 35.3661 21.8234 33.5646 21.8234 31.5267C21.8234 28.2425 19.1516 25.5706 15.8674 25.5706C12.5832 25.5706 9.91136 28.2425 9.91136 31.5267C9.91136 33.5646 10.9407 35.366 12.5062 36.4402C8.44759 37.7323 5.38997 41.3088 4.91468 45.752C4.89104 45.9724 4.96214 46.1924 5.11038 46.3573C5.25862 46.5222 5.46985 46.6163 5.69143 46.6163H26.0432C26.2649 46.6163 26.4761 46.5222 26.6242 46.3572C26.7725 46.1924 26.8436 45.9724 26.82 45.752C26.3446 41.309 23.287 37.7325 19.2285 36.4403ZM11.4739 31.5268C11.4739 29.1041 13.4449 27.1332 15.8674 27.1332C18.29 27.1332 20.2609 29.1041 20.2609 31.5268C20.2609 33.9494 18.29 35.9203 15.8674 35.9203C13.4449 35.9203 11.4739 33.9493 11.4739 31.5268ZM6.60071 45.0539C7.47757 40.6812 11.3183 37.4828 15.8673 37.4828C20.4162 37.4828 24.257 40.6812 25.1339 45.0539H6.60071ZM18.8556 17.0971H19.5327V19.8266C19.5327 20.1454 19.7265 20.4322 20.0223 20.5513C20.1169 20.5894 20.2157 20.6078 20.3138 20.6078C20.5225 20.6078 20.7271 20.5242 20.8774 20.3678L24.0195 17.0971H31.4789C32.8601 17.0971 33.9836 15.9734 33.9836 14.5924V5.95439C33.9836 4.57324 32.86 3.44971 31.4789 3.44971H18.8556C17.4744 3.44971 16.3509 4.57334 16.3509 5.95439V14.5924C16.3508 15.9734 17.4744 17.0971 18.8556 17.0971ZM17.9133 5.95439C17.9133 5.43486 18.336 5.01221 18.8555 5.01221H31.4788C31.9984 5.01221 32.421 5.43486 32.421 5.95439V14.5924C32.421 15.1119 31.9984 15.5346 31.4788 15.5346H23.6866C23.4739 15.5346 23.2704 15.6213 23.1231 15.7746L21.095 17.8856V16.3158C21.095 15.8844 20.7452 15.5346 20.3138 15.5346H18.8554C18.3359 15.5346 17.9132 15.1119 17.9132 14.5924L17.9133 5.95439ZM20.0338 7.16924C20.0338 6.73779 20.3836 6.38799 20.8151 6.38799H29.5194C29.9508 6.38799 30.3006 6.73779 30.3006 7.16924C30.3006 7.60068 29.9508 7.95049 29.5194 7.95049H20.8151C20.3836 7.95049 20.0338 7.60068 20.0338 7.16924ZM20.0338 10.2733C20.0338 9.84189 20.3836 9.49209 20.8151 9.49209H29.5194C29.9508 9.49209 30.3006 9.84189 30.3006 10.2733C30.3006 10.7048 29.9508 11.0546 29.5194 11.0546H20.8151C20.3836 11.0546 20.0338 10.7049 20.0338 10.2733ZM20.0338 13.3774C20.0338 12.946 20.3836 12.5962 20.8151 12.5962H29.5194C29.9508 12.5962 30.3006 12.946 30.3006 13.3774C30.3006 13.8089 29.9508 14.1587 29.5194 14.1587H20.8151C20.3836 14.1587 20.0338 13.809 20.0338 13.3774Z" fill="url(#paint0_linear_229_37856)"/>
<defs>
<linearGradient id="paint0_linear_229_37856" x1="1.25092" y1="25.033" x2="49.6886" y2="25.033" gradientUnits="userSpaceOnUse">
<stop stop-color="#1956C1"/>
<stop offset="1" stop-color="#E2403B"/>
</linearGradient>
</defs>
</svg>
