<svg width="50" height="51" viewBox="0 0 50 51" fill="none" xmlns="http://www.w3.org/2000/svg">
<path d="M4.16668 25.0157C4.16612 21.1035 5.26734 17.2701 7.34424 13.9547C9.42113 10.6392 12.3897 7.97567 15.9101 6.26904C19.4305 4.56241 23.3604 3.88169 27.2497 4.30483C31.139 4.72797 34.8305 6.23787 37.9015 8.66161H34.7325C34.458 8.66427 34.1956 8.77519 34.0024 8.97025C33.8093 9.1653 33.7009 9.42873 33.7009 9.70326C33.7009 9.97779 33.8093 10.2412 34.0024 10.4363C34.1956 10.6313 34.458 10.7423 34.7325 10.7449H40.625C40.9013 10.7449 41.1662 10.6352 41.3616 10.4398C41.5569 10.2445 41.6667 9.97949 41.6667 9.70321V3.81054C41.668 3.6729 41.6421 3.53636 41.5903 3.40881C41.5386 3.28126 41.462 3.16524 41.3652 3.06743C41.2683 2.96963 41.153 2.892 41.026 2.83902C40.899 2.78603 40.7627 2.75875 40.625 2.75875C40.4874 2.75875 40.3511 2.78603 40.2241 2.83902C40.097 2.892 39.9817 2.96963 39.8849 3.06743C39.788 3.16524 39.7115 3.28126 39.6598 3.40881C39.608 3.53636 39.5821 3.6729 39.5834 3.81054V7.33788C35.0412 3.59094 29.2311 1.73611 23.3581 2.15809C17.485 2.58007 11.9998 5.24648 8.03995 9.60429C4.08013 13.9621 1.94964 19.6769 2.09035 25.5634C2.23106 31.4499 4.63218 37.0564 8.79569 41.22C8.89199 41.3186 9.0069 41.397 9.13374 41.4509C9.26059 41.5047 9.39686 41.5328 9.53465 41.5336C9.67244 41.5344 9.80902 41.5079 9.93648 41.4555C10.0639 41.4031 10.1797 41.326 10.2772 41.2285C10.3746 41.1311 10.4517 41.0153 10.5041 40.8879C10.5565 40.7604 10.583 40.6238 10.5822 40.486C10.5814 40.3482 10.5533 40.212 10.4995 40.0851C10.4457 39.9583 10.3672 39.8434 10.2686 39.7471C8.32803 37.817 6.7895 35.5212 5.7421 32.9926C4.6947 30.464 4.15923 27.7527 4.16668 25.0157Z" fill="url(#paint0_linear_229_37895)"/>
<path d="M15.8959 43.7609C15.3049 43.4735 14.7199 43.1535 14.1576 42.8108C13.9218 42.6668 13.6385 42.6225 13.37 42.6874C13.1015 42.7524 12.8697 42.9213 12.7258 43.1571C12.5819 43.3929 12.5375 43.6762 12.6024 43.9447C12.6674 44.2132 12.8364 44.445 13.0721 44.5889C13.6912 44.9668 14.335 45.3183 14.9856 45.6346C15.1087 45.6944 15.2423 45.7293 15.3788 45.7375C15.5153 45.7456 15.6522 45.7268 15.7814 45.6821C15.9107 45.6374 16.0299 45.5676 16.1322 45.4768C16.2345 45.386 16.3179 45.276 16.3777 45.153C16.4375 45.0299 16.4725 44.8963 16.4806 44.7598C16.4888 44.6232 16.4699 44.4864 16.4252 44.3572C16.3805 44.2279 16.3107 44.1087 16.2199 44.0064C16.1292 43.9041 16.0191 43.8206 15.8961 43.7609H15.8959Z" fill="url(#paint1_linear_229_37895)"/>
<path d="M43.7549 15.9306C43.8145 16.0537 43.8978 16.1638 44 16.2548C44.1022 16.3457 44.2213 16.4156 44.3506 16.4605C44.4798 16.5054 44.6166 16.5244 44.7531 16.5164C44.8897 16.5084 45.0234 16.4736 45.1465 16.414C45.2696 16.3543 45.3798 16.271 45.4707 16.1688C45.5616 16.0666 45.6315 15.9475 45.6764 15.8183C45.7213 15.6891 45.7403 15.5523 45.7323 15.4157C45.7243 15.2791 45.6895 15.1455 45.6299 15.0224C45.316 14.3738 44.9651 13.73 44.5872 13.1083C44.5161 12.9914 44.4227 12.8897 44.3122 12.8089C44.2018 12.7281 44.0766 12.6699 43.9436 12.6375C43.6752 12.5721 43.3917 12.6161 43.1557 12.7597C42.9196 12.9033 42.7502 13.1348 42.6849 13.4032C42.6195 13.6717 42.6634 13.9551 42.807 14.1912C43.1506 14.7563 43.4695 15.3416 43.7549 15.9306Z" fill="url(#paint2_linear_229_37895)"/>
<path d="M27.471 45.7027C26.8134 45.7809 26.1481 45.8274 25.493 45.8432C25.2217 45.8536 24.9652 45.9694 24.7782 46.1661C24.5911 46.3628 24.4881 46.6247 24.4913 46.8961C24.4944 47.1676 24.6034 47.427 24.7951 47.6193C24.9867 47.8116 25.2458 47.9214 25.5172 47.9255C25.5253 47.9255 25.534 47.9255 25.5421 47.925C26.2623 47.9082 26.9932 47.8567 27.7154 47.7714C27.9896 47.7387 28.2395 47.5986 28.4104 47.3818C28.5813 47.1649 28.6591 46.8891 28.6267 46.6149C28.5944 46.3408 28.4545 46.0907 28.2379 45.9195C28.0212 45.7484 27.7455 45.6703 27.4713 45.7024L27.471 45.7027Z" fill="url(#paint3_linear_229_37895)"/>
<path d="M21.543 45.5617C20.895 45.4534 20.2434 45.3125 19.6066 45.1418C19.3397 45.0704 19.0553 45.108 18.8161 45.2464C18.5768 45.3847 18.4023 45.6124 18.331 45.8793C18.2596 46.1463 18.2973 46.4307 18.4356 46.6699C18.5739 46.9091 18.8016 47.0836 19.0685 47.155C19.7694 47.3422 20.4866 47.4973 21.2002 47.6163C21.3351 47.6388 21.4731 47.6345 21.6064 47.6037C21.7397 47.5728 21.8656 47.516 21.9769 47.4366C22.0882 47.3571 22.1828 47.2564 22.2552 47.1404C22.3276 47.0243 22.3765 46.8952 22.399 46.7602C22.4215 46.6253 22.4172 46.4873 22.3864 46.354C22.3555 46.2207 22.2988 46.0949 22.2193 45.9835C22.1398 45.8722 22.0391 45.7776 21.9231 45.7052C21.8071 45.6328 21.6779 45.5839 21.543 45.5614V45.5617Z" fill="url(#paint4_linear_229_37895)"/>
<path d="M46.8941 24.5135C46.618 24.5068 46.3504 24.61 46.1504 24.8004C45.9503 24.9909 45.834 25.253 45.827 25.5291C45.8102 26.1878 45.7625 26.853 45.6841 27.5071C45.6514 27.7815 45.729 28.0576 45.8998 28.2747C46.0707 28.4919 46.3207 28.6323 46.595 28.6653C46.6365 28.6699 46.6783 28.6723 46.7201 28.6724C46.9747 28.672 47.2204 28.5784 47.4107 28.4093C47.601 28.2402 47.7228 28.0072 47.7531 27.7544C47.8386 27.0358 47.8915 26.3048 47.9094 25.5811C47.9128 25.4443 47.8893 25.3082 47.8402 25.1805C47.791 25.0528 47.7172 24.9361 47.6229 24.8369C47.5287 24.7378 47.4158 24.6582 47.2907 24.6027C47.1657 24.5472 47.0309 24.5169 46.8941 24.5135Z" fill="url(#paint5_linear_229_37895)"/>
<path d="M43.6963 36.4282C43.4677 36.2732 43.1869 36.2153 42.9157 36.267C42.6444 36.3188 42.4047 36.4761 42.2492 36.7043C41.8789 37.2491 41.4786 37.7827 41.0585 38.2897C40.9692 38.3948 40.9016 38.5165 40.8597 38.6479C40.8179 38.7793 40.8025 38.9177 40.8145 39.0551C40.8265 39.1924 40.8657 39.3261 40.9298 39.4482C40.9939 39.5703 41.0816 39.6784 41.1878 39.7664C41.2941 39.8543 41.4167 39.9203 41.5486 39.9605C41.6805 40.0006 41.8191 40.0142 41.9563 40.0004C42.0935 39.9865 42.2266 39.9456 42.3479 39.8799C42.4691 39.8143 42.5762 39.7252 42.6627 39.6178C43.1245 39.0604 43.5655 38.4739 43.9724 37.8747C44.0492 37.7616 44.1031 37.6345 44.1308 37.5006C44.1585 37.3667 44.1596 37.2286 44.134 37.0943C44.1083 36.9599 44.0565 36.832 43.9814 36.7177C43.9063 36.6034 43.8094 36.505 43.6963 36.4282Z" fill="url(#paint6_linear_229_37895)"/>
<path d="M45.1316 19.6418C45.3004 20.2761 45.4408 20.9276 45.5491 21.5786C45.5895 21.8218 45.7148 22.0428 45.9027 22.2023C46.0906 22.3618 46.329 22.4495 46.5755 22.4499C46.6329 22.4498 46.6902 22.445 46.7469 22.4356C46.8819 22.4132 47.0111 22.3645 47.1272 22.2921C47.2434 22.2198 47.3441 22.1253 47.4237 22.014C47.5033 21.9027 47.5602 21.7769 47.5911 21.6436C47.622 21.5103 47.6264 21.3722 47.6039 21.2373C47.4854 20.5212 47.3305 19.8037 47.1449 19.1056C47.0739 18.8387 46.8996 18.6109 46.6606 18.4724C46.4215 18.3339 46.1373 18.296 45.8703 18.3671C45.6033 18.4382 45.3755 18.6124 45.237 18.8515C45.0985 19.0905 45.0607 19.3748 45.1318 19.6418H45.1316Z" fill="url(#paint7_linear_229_37895)"/>
<path d="M38.2564 41.0889C37.7472 41.5101 37.2137 41.9103 36.671 42.2781C36.5578 42.3548 36.4608 42.4531 36.3856 42.5673C36.3104 42.6816 36.2584 42.8095 36.2326 42.9438C36.2068 43.0781 36.2077 43.2162 36.2353 43.3502C36.2629 43.4842 36.3166 43.6114 36.3933 43.7246C36.4701 43.8378 36.5684 43.9348 36.6826 44.01C36.7968 44.0852 36.9248 44.1372 37.0591 44.163C37.1934 44.1888 37.3315 44.1879 37.4654 44.1603C37.5994 44.1327 37.7266 44.079 37.8399 44.0023C38.437 43.5979 39.0234 43.1579 39.5839 42.6951C39.7969 42.5191 39.9312 42.2657 39.9574 41.9906C39.9835 41.7155 39.8993 41.4413 39.7232 41.2283C39.5472 41.0152 39.2938 40.8809 39.0187 40.8548C38.7436 40.8286 38.4694 40.9129 38.2564 41.0889Z" fill="url(#paint8_linear_229_37895)"/>
<path d="M46.1504 30.7003C45.8872 30.6167 45.6016 30.6409 45.3563 30.7677C45.111 30.8944 44.9259 31.1133 44.8418 31.3763C44.6424 32.0013 44.4095 32.6255 44.1495 33.2322C44.0927 33.3584 44.0616 33.4946 44.058 33.6329C44.0544 33.7712 44.0784 33.9088 44.1286 34.0377C44.1788 34.1667 44.2541 34.2843 44.3503 34.3838C44.4464 34.4833 44.5615 34.5626 44.6886 34.6171C44.8158 34.6717 44.9525 34.7003 45.0909 34.7014C45.2292 34.7025 45.3664 34.676 45.4944 34.6235C45.6224 34.571 45.7386 34.4935 45.8364 34.3956C45.9341 34.2977 46.0113 34.1812 46.0636 34.0531C46.3505 33.3852 46.6068 32.6972 46.826 32.009C46.8676 31.8787 46.8832 31.7415 46.8717 31.6052C46.8603 31.4689 46.8221 31.3362 46.7594 31.2146C46.6966 31.0931 46.6106 30.9851 46.5061 30.8968C46.4016 30.8086 46.2807 30.7418 46.1504 30.7003Z" fill="url(#paint9_linear_229_37895)"/>
<path d="M33.197 44.174C32.5963 44.4313 31.9717 44.6638 31.3405 44.8652C31.2102 44.9067 31.0894 44.9735 30.9849 45.0618C30.8804 45.15 30.7943 45.258 30.7315 45.3795C30.6687 45.5011 30.6305 45.6337 30.619 45.77C30.6075 45.9063 30.623 46.0436 30.6646 46.1739C30.7061 46.3042 30.7729 46.425 30.8612 46.5295C30.9494 46.634 31.0574 46.7201 31.1789 46.7829C31.3004 46.8457 31.4331 46.8839 31.5694 46.8954C31.7057 46.9069 31.8429 46.8914 31.9733 46.8499C32.6675 46.6286 33.3552 46.3728 34.0169 46.0895C34.2709 45.9807 34.4713 45.7755 34.574 45.519C34.6767 45.2624 34.6733 44.9756 34.5645 44.7216C34.4557 44.4676 34.2505 44.2672 33.994 44.1645C33.7374 44.0618 33.4506 44.0652 33.1966 44.174H33.197Z" fill="url(#paint10_linear_229_37895)"/>
<path d="M16.1903 22.8873C16.1903 21.1801 15.0678 19.8121 13.3304 19.4019C12.3759 19.1759 11.373 19.28 10.4853 19.6974C9.5977 20.1147 8.87773 20.8206 8.44297 21.6999C8.32123 21.9468 8.30217 22.2318 8.38995 22.4928C8.47772 22.7537 8.66521 22.9693 8.91144 23.0924C9.15766 23.2155 9.44261 23.2362 9.70402 23.1498C9.96543 23.0635 10.182 22.8772 10.3065 22.6317C10.5289 22.1702 10.903 21.7989 11.3663 21.5801C11.8296 21.3613 12.3539 21.3082 12.8517 21.4296C13.1462 21.499 14.1069 21.8097 14.1069 22.8873C14.1069 23.9737 12.8521 24.8117 11.5236 25.699C10.0277 26.6974 8.33301 27.8291 8.33301 29.7029C8.33301 29.9792 8.44276 30.2441 8.63811 30.4395C8.83347 30.6349 9.09843 30.7446 9.37471 30.7446H15.1486C15.2863 30.7459 15.4228 30.72 15.5504 30.6682C15.6779 30.6165 15.7939 30.54 15.8917 30.4431C15.9895 30.3462 16.0672 30.231 16.1202 30.1039C16.1731 29.9769 16.2004 29.8406 16.2004 29.703C16.2004 29.5653 16.1731 29.429 16.1202 29.302C16.0672 29.1749 15.9895 29.0597 15.8917 28.9628C15.7939 28.8659 15.6779 28.7894 15.5504 28.7377C15.4228 28.6859 15.2863 28.66 15.1486 28.6613H11.0217C11.4581 28.2478 12.075 27.8358 12.6803 27.4314C14.3259 26.3328 16.1903 25.0877 16.1903 22.8873Z" fill="url(#paint11_linear_229_37895)"/>
<path d="M26.0414 26.3178C26.0414 26.0415 25.9316 25.7766 25.7363 25.5813C25.5409 25.3859 25.276 25.2762 24.9997 25.2762H24.1533V19.7423C24.1533 19.5266 24.0863 19.3162 23.9616 19.1401C23.8368 18.9641 23.6605 18.8312 23.457 18.7596C23.2535 18.6881 23.0327 18.6815 22.8253 18.7408C22.6179 18.8001 22.434 18.9223 22.2989 19.0905L17.0255 25.6663C16.9028 25.8195 16.8259 26.0042 16.8036 26.1992C16.7813 26.3942 16.8146 26.5916 16.8995 26.7685C16.9844 26.9454 17.1176 27.0948 17.2837 27.1993C17.4498 27.3039 17.642 27.3594 17.8383 27.3595H22.07V30.2892C22.0687 30.4268 22.0947 30.5634 22.1464 30.6909C22.1982 30.8184 22.2747 30.9345 22.3715 31.0323C22.4684 31.1301 22.5837 31.2077 22.7107 31.2607C22.8378 31.3137 22.974 31.341 23.1117 31.341C23.2493 31.341 23.3856 31.3137 23.5127 31.2607C23.6397 31.2077 23.755 31.1301 23.8518 31.0323C23.9487 30.9345 24.0252 30.8184 24.077 30.6909C24.1287 30.5634 24.1547 30.4268 24.1533 30.2892V27.3595H24.9997C25.276 27.3595 25.541 27.2497 25.7363 27.0544C25.9317 26.859 26.0414 26.5941 26.0414 26.3178ZM22.07 25.2762H20.0095L22.07 22.7061V25.2762Z" fill="url(#paint12_linear_229_37895)"/>
<path d="M31.3731 18.1349C31.2389 18.1077 31.1007 18.1074 30.9664 18.1338C30.8321 18.1602 30.7044 18.2129 30.5905 18.2888C30.4766 18.3647 30.3788 18.4624 30.3028 18.5762C30.2267 18.69 30.1739 18.8177 30.1473 18.9519L27.8035 30.6707C27.7493 30.9416 27.8049 31.2229 27.9581 31.4528C28.1113 31.6827 28.3495 31.8423 28.6204 31.8965C28.688 31.9099 28.7566 31.9167 28.8255 31.9168C29.0661 31.9165 29.2992 31.833 29.4852 31.6804C29.6712 31.5278 29.7986 31.3155 29.8458 31.0796L32.1896 19.3608C32.2165 19.2267 32.2167 19.0886 32.1903 18.9544C32.1638 18.8202 32.1112 18.6925 32.0353 18.5787C31.9595 18.4648 31.862 18.367 31.7484 18.2909C31.6347 18.2147 31.5072 18.1617 31.3731 18.1349Z" fill="url(#paint13_linear_229_37895)"/>
<path d="M36.7186 30.745C36.9243 30.7449 37.1254 30.6839 37.2966 30.5698C37.4677 30.4557 37.6013 30.2935 37.6804 30.1036L41.5867 20.7286C41.6527 20.5703 41.6787 20.3982 41.6622 20.2275C41.6457 20.0567 41.5873 19.8927 41.4922 19.75C41.3971 19.6073 41.2682 19.4903 41.117 19.4093C40.9657 19.3284 40.7969 19.2861 40.6254 19.2861H35.3519C35.0774 19.2888 34.815 19.3997 34.6219 19.5948C34.4287 19.7898 34.3203 20.0533 34.3203 20.3278C34.3203 20.6023 34.4287 20.8657 34.6219 21.0608C34.815 21.2559 35.0774 21.3668 35.3519 21.3694H39.0629L35.7578 29.3024C35.6921 29.4607 35.6663 29.6328 35.6829 29.8034C35.6995 29.974 35.7579 30.1378 35.8529 30.2805C35.9479 30.4232 36.0766 30.5402 36.2276 30.6213C36.3786 30.7024 36.5472 30.745 36.7186 30.7454V30.745Z" fill="url(#paint14_linear_229_37895)"/>
<defs>
<linearGradient id="paint0_linear_229_37895" x1="2.0838" y1="21.8164" x2="41.6667" y2="21.8164" gradientUnits="userSpaceOnUse">
<stop stop-color="#1956C1"/>
<stop offset="1" stop-color="#E2403B"/>
</linearGradient>
<linearGradient id="paint1_linear_229_37895" x1="12.5732" y1="44.1988" x2="16.4825" y2="44.1988" gradientUnits="userSpaceOnUse">
<stop stop-color="#1956C1"/>
<stop offset="1" stop-color="#E2403B"/>
</linearGradient>
<linearGradient id="paint2_linear_229_37895" x1="42.6553" y1="14.563" x2="45.7341" y2="14.563" gradientUnits="userSpaceOnUse">
<stop stop-color="#1956C1"/>
<stop offset="1" stop-color="#E2403B"/>
</linearGradient>
<linearGradient id="paint3_linear_229_37895" x1="24.4912" y1="46.8104" x2="28.6339" y2="46.8104" gradientUnits="userSpaceOnUse">
<stop stop-color="#1956C1"/>
<stop offset="1" stop-color="#E2403B"/>
</linearGradient>
<linearGradient id="paint4_linear_229_37895" x1="18.2957" y1="46.3685" x2="22.4132" y2="46.3685" gradientUnits="userSpaceOnUse">
<stop stop-color="#1956C1"/>
<stop offset="1" stop-color="#E2403B"/>
</linearGradient>
<linearGradient id="paint5_linear_229_37895" x1="45.6768" y1="26.5928" x2="47.9097" y2="26.5928" gradientUnits="userSpaceOnUse">
<stop stop-color="#1956C1"/>
<stop offset="1" stop-color="#E2403B"/>
</linearGradient>
<linearGradient id="paint6_linear_229_37895" x1="40.8105" y1="38.1271" x2="44.1524" y2="38.1271" gradientUnits="userSpaceOnUse">
<stop stop-color="#1956C1"/>
<stop offset="1" stop-color="#E2403B"/>
</linearGradient>
<linearGradient id="paint7_linear_229_37895" x1="45.0967" y1="20.391" x2="47.618" y2="20.391" gradientUnits="userSpaceOnUse">
<stop stop-color="#1956C1"/>
<stop offset="1" stop-color="#E2403B"/>
</linearGradient>
<linearGradient id="paint8_linear_229_37895" x1="36.2139" y1="42.5159" x2="39.962" y2="42.5159" gradientUnits="userSpaceOnUse">
<stop stop-color="#1956C1"/>
<stop offset="1" stop-color="#E2403B"/>
</linearGradient>
<linearGradient id="paint9_linear_229_37895" x1="44.0576" y1="32.6764" x2="46.8754" y2="32.6764" gradientUnits="userSpaceOnUse">
<stop stop-color="#1956C1"/>
<stop offset="1" stop-color="#E2403B"/>
</linearGradient>
<linearGradient id="paint10_linear_229_37895" x1="30.6154" y1="45.4945" x2="34.6486" y2="45.4945" gradientUnits="userSpaceOnUse">
<stop stop-color="#1956C1"/>
<stop offset="1" stop-color="#E2403B"/>
</linearGradient>
<linearGradient id="paint11_linear_229_37895" x1="8.33301" y1="25.0149" x2="16.2004" y2="25.0149" gradientUnits="userSpaceOnUse">
<stop stop-color="#1956C1"/>
<stop offset="1" stop-color="#E2403B"/>
</linearGradient>
<linearGradient id="paint12_linear_229_37895" x1="16.7969" y1="25.0208" x2="26.0414" y2="25.0208" gradientUnits="userSpaceOnUse">
<stop stop-color="#1956C1"/>
<stop offset="1" stop-color="#E2403B"/>
</linearGradient>
<linearGradient id="paint13_linear_229_37895" x1="27.7833" y1="25.0155" x2="32.2099" y2="25.0155" gradientUnits="userSpaceOnUse">
<stop stop-color="#1956C1"/>
<stop offset="1" stop-color="#E2403B"/>
</linearGradient>
<linearGradient id="paint14_linear_229_37895" x1="34.3203" y1="25.0158" x2="41.667" y2="25.0158" gradientUnits="userSpaceOnUse">
<stop stop-color="#1956C1"/>
<stop offset="1" stop-color="#E2403B"/>
</linearGradient>
</defs>
</svg>
