<svg width="51" height="51" viewBox="0 0 51 51" fill="none" xmlns="http://www.w3.org/2000/svg">
<g clip-path="url(#clip0_215_10539)">
<path fill-rule="evenodd" clip-rule="evenodd" d="M27.0105 25.2519C22.9681 25.2519 23.3678 25.6354 23.3678 23.4598C22.604 23.2026 21.8938 22.8059 21.2786 22.292C19.3271 23.3781 19.8864 23.55 17.8497 20.1481C17.4339 19.4537 18.4801 19.1054 19.1575 18.7283C19.0113 17.9716 19.011 17.1885 19.1572 16.4326C17.1922 15.3398 17.3463 15.8549 19.3778 12.4611C19.7654 11.8137 20.5391 12.4579 21.2789 12.8692C21.8938 12.3562 22.6037 11.9593 23.3675 11.7017C23.3675 9.52585 22.9679 9.90935 27.0103 9.90935C27.779 9.90935 27.5962 10.9069 27.5962 11.7017C28.36 11.9593 29.0698 12.3559 29.6848 12.8695C31.636 11.7829 31.0767 11.6103 33.114 15.0132C33.5297 15.7075 32.4818 16.0567 31.8062 16.4329C31.9527 17.1911 31.9524 17.9704 31.8062 18.7289C33.7714 19.8229 33.6167 19.3078 31.5853 22.7007C31.1977 23.3485 30.4248 22.7045 29.6857 22.2932C29.0704 22.8068 28.3606 23.2034 27.5962 23.461C27.5962 24.2564 27.779 25.2516 27.0105 25.2516V25.2519ZM24.5393 24.08H26.4246C26.4246 23.3367 26.2761 22.6096 26.8629 22.4564C29.0397 21.8883 29.1481 20.652 29.8913 21.0654L30.8719 21.6112L31.798 20.0649C29.8676 18.9914 30.7442 19.5056 30.7442 17.5811C30.7442 15.6557 29.8679 16.1701 31.798 15.0967L30.8719 13.5504C30.194 13.928 29.6265 14.4167 29.2002 14.0077C27.5921 12.4638 26.4243 13.0137 26.4243 12.1386V11.0815L24.5391 11.0812C24.5391 11.8257 24.6876 12.5525 24.1008 12.7055C21.9255 13.2726 21.8156 14.5107 21.0726 14.0965L20.0909 13.5501L19.1648 15.0964C21.0952 16.1701 20.2186 15.6557 20.2186 17.5808C20.2186 19.5047 21.0949 18.9911 19.1648 20.0649L20.0909 21.6112C20.7726 21.2318 21.336 20.7451 21.7629 21.1541C23.3777 22.7016 24.5388 22.1479 24.5388 23.0233V24.0803H24.5391L24.5393 24.08Z" fill="url(#paint0_linear_215_10539)"/>
<path fill-rule="evenodd" clip-rule="evenodd" d="M25.4818 20.5133C23.8159 20.5133 22.4609 19.1979 22.4609 17.5804C22.4609 15.9632 23.8159 14.6475 25.4818 14.6475C27.147 14.6475 28.502 15.9629 28.502 17.5804C28.5026 19.1976 27.1473 20.5133 25.4818 20.5133ZM25.4818 15.8193C23.0451 15.8193 23.0457 19.3414 25.4818 19.3414C27.9169 19.3414 27.9175 15.8193 25.4818 15.8193Z" fill="url(#paint1_linear_215_10539)"/>
<path fill-rule="evenodd" clip-rule="evenodd" d="M32.6245 42.8585H18.3381C18.0147 42.8585 17.7522 42.5957 17.7522 42.2726C17.7522 27.6294 11.5781 30.3437 11.5781 21.126C11.5781 13.4602 17.8152 7.22314 25.481 7.22314C33.1472 7.22314 39.3839 13.4602 39.3839 21.126C39.3839 30.3408 33.2066 27.639 33.2101 42.2726C33.2104 42.5957 32.9479 42.8585 32.6245 42.8585ZM18.9208 41.6861H32.0418C32.2017 27.332 38.212 29.6728 38.212 21.1254C38.212 14.1056 32.5012 8.39444 25.4813 8.39444C18.4615 8.39444 12.7503 14.1056 12.7503 21.1254C12.7503 29.6717 18.762 27.3329 18.9208 41.6861Z" fill="url(#paint2_linear_215_10539)"/>
<path fill-rule="evenodd" clip-rule="evenodd" d="M32.6243 46.3541H18.3379C18.0145 46.3541 17.752 46.0913 17.752 45.7682V42.2728C17.752 41.5014 18.9238 41.5017 18.9238 42.2728V45.1823H32.0378V42.2728C32.0378 41.5014 33.2096 41.5017 33.2096 42.2728V45.7682C33.2102 46.0913 32.9477 46.3541 32.6243 46.3541Z" fill="url(#paint3_linear_215_10539)"/>
<path fill-rule="evenodd" clip-rule="evenodd" d="M32.7764 39.252H18.1967C17.4253 39.252 17.4253 38.0801 18.1967 38.0801H32.7764C33.5477 38.0801 33.5477 39.252 32.7764 39.252Z" fill="url(#paint4_linear_215_10539)"/>
<path fill-rule="evenodd" clip-rule="evenodd" d="M25.4818 50.4419C21.3269 50.4419 19.8037 45.1816 21.3937 45.1816C21.7171 45.1816 21.9796 45.4444 21.9796 45.7676C21.9796 47.6988 23.5508 49.2697 25.4818 49.2697C27.4127 49.2697 28.9839 47.6985 28.9839 45.7676C28.9839 44.9962 30.1558 44.9965 30.1558 45.7676C30.1561 48.3448 28.059 50.4419 25.4818 50.4419Z" fill="url(#paint5_linear_215_10539)"/>
<path fill-rule="evenodd" clip-rule="evenodd" d="M27.8086 39.2517C27.4852 39.2517 27.2227 38.9889 27.2227 38.6658V28.9993C27.2227 28.7898 27.3346 28.5964 27.5162 28.4918L30.8596 26.562C31.527 26.1765 32.1138 27.1905 31.4455 27.5766L28.3954 29.3373V38.6658C28.3945 38.9892 28.132 39.2517 27.8086 39.2517Z" fill="url(#paint6_linear_215_10539)"/>
<path fill-rule="evenodd" clip-rule="evenodd" d="M23.1546 39.2518C22.8312 39.2518 22.5687 38.989 22.5687 38.6659V29.3374L19.5186 27.5766C18.8503 27.1911 19.4357 26.1748 20.1045 26.5621L23.4473 28.4919C23.6286 28.5965 23.7403 28.7898 23.7403 28.9993V38.6659C23.7406 38.9893 23.4784 39.2518 23.1546 39.2518Z" fill="url(#paint7_linear_215_10539)"/>
<path fill-rule="evenodd" clip-rule="evenodd" d="M25.4824 6.76567C25.159 6.76567 24.8965 6.50317 24.8965 6.17973V1.02874C24.8965 0.257348 26.0684 0.257348 26.0684 1.02874V6.17973C26.0684 6.50376 25.8059 6.76567 25.4824 6.76567Z" fill="url(#paint8_linear_215_10539)"/>
<path fill-rule="evenodd" clip-rule="evenodd" d="M35.6234 9.48341C35.179 9.48341 34.8889 8.99884 35.1166 8.6045L37.6918 4.14374C38.077 3.47606 39.0925 4.06112 38.7063 4.72968L36.1311 9.19044C36.0224 9.37853 35.8256 9.48341 35.6234 9.48341Z" fill="url(#paint9_linear_215_10539)"/>
<path fill-rule="evenodd" clip-rule="evenodd" d="M43.0484 16.908C42.4536 16.908 42.2368 16.1135 42.7548 15.8144L47.2162 13.2389C47.8835 12.853 48.4701 13.8676 47.8021 14.2534C47.1956 14.6035 43.3949 16.908 43.0484 16.908Z" fill="url(#paint10_linear_215_10539)"/>
<path fill-rule="evenodd" clip-rule="evenodd" d="M15.3397 9.48334C15.137 9.48334 14.9401 9.37816 14.8314 9.19037L12.2559 4.72961C11.87 4.06076 12.8858 3.47628 13.2704 4.14367L15.8462 8.60443C16.0733 8.99818 15.7844 9.48334 15.3397 9.48334Z" fill="url(#paint11_linear_215_10539)"/>
<path fill-rule="evenodd" clip-rule="evenodd" d="M7.91384 16.9082C7.5658 16.9082 3.76803 14.6046 3.1607 14.2539C2.49331 13.8686 3.07808 12.8535 3.74664 13.2393L8.2074 15.8148C8.72449 16.1134 8.50974 16.9082 7.91384 16.9082Z" fill="url(#paint12_linear_215_10539)"/>
</g>
<defs>
<linearGradient id="paint0_linear_215_10539" x1="17.7549" y1="17.5806" x2="33.2087" y2="17.5806" gradientUnits="userSpaceOnUse">
<stop stop-color="#1956C1"/>
<stop offset="1" stop-color="#E2403B"/>
</linearGradient>
<linearGradient id="paint1_linear_215_10539" x1="22.4609" y1="17.5804" x2="28.502" y2="17.5804" gradientUnits="userSpaceOnUse">
<stop stop-color="#1956C1"/>
<stop offset="1" stop-color="#E2403B"/>
</linearGradient>
<linearGradient id="paint2_linear_215_10539" x1="11.5781" y1="25.0408" x2="39.3839" y2="25.0408" gradientUnits="userSpaceOnUse">
<stop stop-color="#1956C1"/>
<stop offset="1" stop-color="#E2403B"/>
</linearGradient>
<linearGradient id="paint3_linear_215_10539" x1="17.752" y1="44.0242" x2="33.2096" y2="44.0242" gradientUnits="userSpaceOnUse">
<stop stop-color="#1956C1"/>
<stop offset="1" stop-color="#E2403B"/>
</linearGradient>
<linearGradient id="paint4_linear_215_10539" x1="17.6182" y1="38.666" x2="33.3549" y2="38.666" gradientUnits="userSpaceOnUse">
<stop stop-color="#1956C1"/>
<stop offset="1" stop-color="#E2403B"/>
</linearGradient>
<linearGradient id="paint5_linear_215_10539" x1="20.7764" y1="47.8118" x2="30.1558" y2="47.8118" gradientUnits="userSpaceOnUse">
<stop stop-color="#1956C1"/>
<stop offset="1" stop-color="#E2403B"/>
</linearGradient>
<linearGradient id="paint6_linear_215_10539" x1="27.2227" y1="32.8639" x2="31.7402" y2="32.8639" gradientUnits="userSpaceOnUse">
<stop stop-color="#1956C1"/>
<stop offset="1" stop-color="#E2403B"/>
</linearGradient>
<linearGradient id="paint7_linear_215_10539" x1="19.2236" y1="32.8637" x2="23.7403" y2="32.8637" gradientUnits="userSpaceOnUse">
<stop stop-color="#1956C1"/>
<stop offset="1" stop-color="#E2403B"/>
</linearGradient>
<linearGradient id="paint8_linear_215_10539" x1="24.8965" y1="3.60793" x2="26.0684" y2="3.60793" gradientUnits="userSpaceOnUse">
<stop stop-color="#1956C1"/>
<stop offset="1" stop-color="#E2403B"/>
</linearGradient>
<linearGradient id="paint9_linear_215_10539" x1="35.0371" y1="6.66627" x2="38.7924" y2="6.66627" gradientUnits="userSpaceOnUse">
<stop stop-color="#1956C1"/>
<stop offset="1" stop-color="#E2403B"/>
</linearGradient>
<linearGradient id="paint10_linear_215_10539" x1="42.4629" y1="15.0304" x2="48.0966" y2="15.0304" gradientUnits="userSpaceOnUse">
<stop stop-color="#1956C1"/>
<stop offset="1" stop-color="#E2403B"/>
</linearGradient>
<linearGradient id="paint11_linear_215_10539" x1="12.1699" y1="6.66623" x2="15.9255" y2="6.66623" gradientUnits="userSpaceOnUse">
<stop stop-color="#1956C1"/>
<stop offset="1" stop-color="#E2403B"/>
</linearGradient>
<linearGradient id="paint12_linear_215_10539" x1="2.86621" y1="15.0308" x2="8.49926" y2="15.0308" gradientUnits="userSpaceOnUse">
<stop stop-color="#1956C1"/>
<stop offset="1" stop-color="#E2403B"/>
</linearGradient>
<clipPath id="clip0_215_10539">
<rect width="50" height="50" fill="white" transform="translate(0.481445 0.442383)"/>
</clipPath>
</defs>
</svg>
