<svg width="51" height="51" viewBox="0 0 51 51" fill="none" xmlns="http://www.w3.org/2000/svg">
<path fill-rule="evenodd" clip-rule="evenodd" d="M35.4498 14.6975C25.1186 24.2684 14.6273 29.1038 5.09042 32.1233C4.67767 32.254 4.2366 32.025 4.10591 31.6124C3.97522 31.1996 4.20424 30.7585 4.61689 30.6278C13.9819 27.6628 24.2875 22.9151 34.4321 13.502C34.2312 12.2308 33.9976 8.87707 36.3805 5.9554C38.3055 3.5951 41.9829 1.46442 48.9737 1.12981C49.2597 1.11608 49.5305 1.25952 49.6801 1.50383C49.8296 1.74814 49.834 2.05461 49.6917 2.30314C49.6917 2.30314 46.9461 7.07912 46.2408 9.51442C45.5754 11.8119 44.437 13.2222 43.1541 14.0753C40.3159 15.9629 36.6716 15.0699 35.4498 14.6975ZM36.7161 13.4192C38.0813 13.742 40.4 14.0231 42.2854 12.7692C43.3172 12.0829 44.1989 10.9259 44.734 9.07805C45.2384 7.33687 46.732 4.44912 47.628 2.79383C42.2024 3.28226 39.2045 4.97461 37.5961 6.94677C36.1419 8.72981 35.859 10.7058 35.8756 12.0428C37.0975 10.8284 39.1219 8.94128 41.2057 7.53854C41.5647 7.29677 42.0526 7.39207 42.2943 7.75118C42.536 8.1102 42.4407 8.59805 42.0817 8.83981C39.9272 10.2901 37.8402 12.2826 36.7161 13.4192ZM46.7484 45.8319H49.0111C49.4442 45.8319 49.7954 46.183 49.7954 46.6162V48.9721C49.7954 49.4052 49.4442 49.7564 49.0111 49.7564H1.95228C1.51915 49.7564 1.16797 49.4052 1.16797 48.9721V46.6162C1.16797 46.183 1.51915 45.8319 1.95228 45.8319H4.21503V35.31C4.21503 34.8769 4.5662 34.5257 4.99934 34.5257H11.2334C11.6665 34.5257 12.0177 34.8769 12.0177 35.31V45.8319H15.7929V29.0411C15.7929 28.6079 16.1439 28.2568 16.5772 28.2568H22.8111C23.2443 28.2568 23.5954 28.6079 23.5954 29.0411V45.8319H27.368V22.4978C27.368 22.0646 27.719 21.7134 28.1523 21.7134H34.389C34.8221 21.7134 35.1733 22.0646 35.1733 22.4978V45.8319H38.9457V16.6107C38.9457 16.1776 39.2969 15.8264 39.73 15.8264H45.9641C46.3972 15.8264 46.7484 16.1776 46.7484 16.6107V45.8319ZM5.78366 45.8319H10.449V36.0943H5.78366V45.8319ZM17.3615 45.8319H22.0268V29.8254H17.3615V45.8319ZM28.9366 45.8319H33.6046C33.6046 41.7669 33.6046 23.2821 33.6046 23.2821H28.9366V45.8319ZM40.5143 45.8319H45.1797V17.395H40.5143V45.8319ZM2.7366 48.1878H48.2268V47.4005H2.7366V48.1878ZM22.7326 18.0972C23.1071 18.0546 23.4687 18.288 23.5749 18.6625C23.6932 19.0789 23.451 19.5129 23.0345 19.6311L21.0024 20.2078C20.7733 20.2729 20.5269 20.2303 20.333 20.092C20.139 19.9536 20.0184 19.7346 20.0051 19.4968L19.8883 17.3877C19.8643 16.9554 20.1957 16.5851 20.628 16.5611C21.024 16.5391 21.368 16.8155 21.4413 17.1944C22.223 15.7978 22.6679 14.1936 22.6679 12.488C22.6679 7.08099 18.1989 2.69756 12.7023 2.69756C12.0869 2.69756 11.4844 2.75236 10.8997 2.85746C10.4737 2.93403 10.0656 2.6503 9.98905 2.22432C9.91248 1.79824 10.1962 1.3902 10.6222 1.31363C11.297 1.19236 11.9922 1.12893 12.7023 1.12893C19.0717 1.12893 24.2365 6.22236 24.2365 12.488C24.2365 14.5272 23.6898 16.4417 22.7326 18.0972ZM2.69238 6.84363C2.30258 6.90285 1.92179 6.6602 1.81767 6.2705C1.70591 5.85226 1.95473 5.42207 2.37297 5.3103L4.41375 4.76501C4.64395 4.70354 4.88954 4.74991 5.0814 4.89128C5.27316 5.03256 5.39042 5.25334 5.39993 5.49138L5.48424 7.60216C5.5015 8.03471 5.16434 8.39981 4.73179 8.41716C4.35415 8.43226 4.02777 8.17707 3.93964 7.82403C3.17258 9.21069 2.7366 10.7997 2.7366 12.488C2.7366 17.8952 7.20562 22.2785 12.7023 22.2785C13.3176 22.2785 13.92 22.2237 14.5048 22.1186C14.9308 22.0421 15.3389 22.3258 15.4155 22.7519C15.4921 23.1778 15.2083 23.586 14.7823 23.6626C14.1075 23.7837 13.4124 23.8472 12.7023 23.8472C6.33277 23.8472 1.16797 18.7537 1.16797 12.488C1.16797 10.4344 1.72248 8.50716 2.69238 6.84363ZM12.7023 20.9635C8.03424 20.9635 4.22679 17.1561 4.22679 12.488C4.22679 7.82001 8.03424 4.01256 12.7023 4.01256C17.3703 4.01256 21.1778 7.82001 21.1778 12.488C21.1778 17.1561 17.3703 20.9635 12.7023 20.9635ZM12.7023 19.3949C16.5063 19.3949 19.6091 16.2922 19.6091 12.488C19.6091 8.68393 16.5063 5.58118 12.7023 5.58118C8.89817 5.58118 5.79542 8.68393 5.79542 12.488C5.79542 16.2922 8.89817 19.3949 12.7023 19.3949ZM11.918 8.01893V7.62265C11.918 7.18971 12.2693 6.83834 12.7023 6.83834C13.1351 6.83834 13.4866 7.18971 13.4866 7.62265V8.01001C14.4059 8.21559 15.2535 8.80648 15.6912 9.84942C15.8587 10.2486 15.6706 10.7086 15.2715 10.8762C14.8723 11.0436 14.4123 10.8556 14.2447 10.4565C13.8487 9.51265 12.7899 9.32363 12.0305 9.62236C11.6002 9.79167 11.2513 10.1356 11.2764 10.6407L11.2765 10.6426C11.2949 11.0336 11.5518 11.2546 11.8539 11.4022C12.1562 11.5498 12.506 11.632 12.836 11.6857L12.8374 11.6859C14.222 11.9138 15.7361 12.5489 15.9341 14.1948C16.1282 15.7974 14.8436 16.7291 13.4866 16.9816V17.3561C13.4866 17.7889 13.1351 18.1404 12.7023 18.1404C12.2693 18.1404 11.918 17.7889 11.918 17.3561V16.9701C10.7687 16.7307 9.77973 15.9721 9.47503 14.7479C9.37052 14.3279 9.6266 13.9021 10.0467 13.7975C10.4668 13.6929 10.8927 13.949 10.9972 14.3691C11.1954 15.1653 12.0043 15.5021 12.783 15.4828H12.7847C13.2065 15.4732 13.6763 15.3696 14.0221 15.1312C14.2577 14.9687 14.4184 14.7257 14.3769 14.3832L14.3768 14.3824C14.323 13.9346 14.0154 13.6909 13.6611 13.5299C13.3239 13.3768 12.941 13.2928 12.5839 13.2339C11.2273 13.0129 9.78562 12.3253 9.70964 10.7168C9.64915 9.48383 10.4054 8.57599 11.4563 8.16256C11.6051 8.10403 11.7596 8.05609 11.918 8.01893Z" fill="url(#paint0_linear_215_10561)"/>
<defs>
<linearGradient id="paint0_linear_215_10561" x1="1.16797" y1="25.4426" x2="49.7954" y2="25.4426" gradientUnits="userSpaceOnUse">
<stop stop-color="#1956C1"/>
<stop offset="1" stop-color="#E2403B"/>
</linearGradient>
</defs>
</svg>
