<svg width="51" height="51" viewBox="0 0 51 51" fill="none" xmlns="http://www.w3.org/2000/svg">
<path d="M14.9632 25.0256C15.9411 25.0256 16.8155 24.575 17.3904 23.8707L22.9518 26.4321C22.9189 26.6138 22.9009 26.8005 22.9009 26.9914C22.9009 28.7188 24.3063 30.1243 26.0338 30.1243C27.7612 30.1243 29.1667 28.7188 29.1667 26.9914C29.1667 26.4685 29.0372 25.9754 28.8097 25.5416L38.9668 16.3886L38.808 18.3356C38.7729 18.7656 39.0932 19.1428 39.5231 19.1778C39.5448 19.1796 39.5661 19.1805 39.5875 19.1805C39.9901 19.1805 40.3319 18.8711 40.3653 18.4627L40.6936 14.4383C40.7127 14.2048 40.626 13.9751 40.4573 13.8125C40.2889 13.65 40.0574 13.5714 39.8234 13.5989L35.8135 14.0719C35.385 14.1225 35.0786 14.5107 35.1291 14.9393C35.1796 15.3678 35.5679 15.6742 35.9966 15.6236L37.7055 15.4221L27.7636 24.3812C27.2675 24.0514 26.6728 23.8587 26.0339 23.8587C25.0559 23.8587 24.1815 24.3093 23.6065 25.0136L18.0451 22.4521C18.078 22.2705 18.0961 22.0838 18.0961 21.8928C18.0961 20.1653 16.6906 18.7599 14.9632 18.7599C13.2357 18.7599 11.8303 20.1652 11.8303 21.8928C11.8303 22.1806 11.87 22.4591 11.9431 22.724L1.64374 28.6295C1.26942 28.8441 1.14003 29.3215 1.35458 29.6958C1.49901 29.9476 1.7623 30.0886 2.0331 30.0886C2.16483 30.0886 2.29843 30.0552 2.42099 29.9849L12.7218 24.0783C13.2912 24.6622 14.0853 25.0256 14.9632 25.0256ZM26.0338 25.421C26.8997 25.421 27.6042 26.1255 27.6042 26.9914C27.6042 27.8573 26.8997 28.5618 26.0338 28.5618C25.1679 28.5618 24.4634 27.8573 24.4634 26.9914C24.4634 26.1255 25.1679 25.421 26.0338 25.421ZM14.9632 20.3223C15.8291 20.3223 16.5336 21.0268 16.5336 21.8927C16.5336 22.7586 15.8291 23.4631 14.9632 23.4631C14.0973 23.4631 13.3928 22.7586 13.3928 21.8927C13.3928 21.0268 14.0973 20.3223 14.9632 20.3223ZM41.9296 36.9393C42.0127 37.6228 41.8281 38.2479 41.3961 38.7476C40.9509 39.2623 40.2459 39.6226 39.438 39.7636V40.1544C39.438 40.5858 39.0882 40.9356 38.6567 40.9356C38.2253 40.9356 37.8755 40.5858 37.8755 40.1544V39.7509C36.6322 39.4993 35.6783 38.6619 35.3875 37.4957C35.2832 37.077 35.5379 36.6531 35.9565 36.5487C36.3755 36.4442 36.7992 36.6991 36.9036 37.1178C37.1216 37.9927 38.03 38.2828 38.7402 38.2662C39.3549 38.2516 39.9472 38.0343 40.2142 37.7255C40.3559 37.5617 40.4081 37.3717 40.3785 37.1276C40.3276 36.7089 40.0725 36.1959 38.5373 35.9438C36.2149 35.5625 35.6725 34.3488 35.6264 33.3979C35.5627 32.0872 36.4659 30.9905 37.8754 30.6646V30.2479C37.8754 29.8164 38.2252 29.4666 38.6566 29.4666C39.0881 29.4666 39.4379 29.8164 39.4379 30.2479V30.6576C40.3534 30.8583 41.2263 31.4368 41.6814 32.5208C41.8485 32.9187 41.6614 33.3766 41.2636 33.5436C40.8662 33.7105 40.4078 33.5236 40.2408 33.1257C39.8713 32.2456 38.9678 32.019 38.2362 32.1849C38.0538 32.2263 37.1459 32.4755 37.187 33.3221C37.1979 33.5473 37.2269 34.1452 38.7905 34.4021C40.7072 34.7167 41.7635 35.5703 41.9296 36.9393ZM38.6567 26.5924C33.9099 26.5924 30.0479 30.4542 30.0479 35.2011C30.0479 39.948 33.9099 43.8099 38.6567 43.8099C43.4035 43.8099 47.2654 39.948 47.2654 35.2011C47.2655 30.4542 43.4036 26.5924 38.6567 26.5924ZM38.6567 42.2474C34.7714 42.2474 31.6104 39.0864 31.6104 35.2011C31.6104 31.3157 34.7714 28.1549 38.6567 28.1549C42.542 28.1549 45.7029 31.3158 45.7029 35.2011C45.7029 39.0863 42.542 42.2474 38.6567 42.2474ZM38.6567 24.1691C32.5736 24.1691 27.6247 29.1181 27.6247 35.2011C27.6247 41.2841 32.5736 46.233 38.6567 46.233C44.7397 46.233 49.6887 41.2841 49.6887 35.2011C49.6887 29.1181 44.7397 24.1691 38.6567 24.1691ZM38.6567 44.6706C33.4351 44.6706 29.1872 40.4226 29.1872 35.2012C29.1872 29.9798 33.4351 25.7317 38.6567 25.7317C43.8782 25.7317 48.1262 29.9798 48.1262 35.2012C48.1262 40.4226 43.8782 44.6706 38.6567 44.6706ZM19.2286 36.8485C20.7941 35.7743 21.8234 33.9728 21.8234 31.9349C21.8234 28.6507 19.1516 25.9788 15.8675 25.9788C12.5833 25.9788 9.91142 28.6507 9.91142 31.9349C9.91142 33.9728 10.9407 35.7742 12.5062 36.8484C8.44765 38.1405 5.39003 41.717 4.91474 46.1602C4.8911 46.3806 4.9622 46.6006 5.11044 46.7655C5.25868 46.9304 5.46991 47.0245 5.69149 47.0245H26.0433C26.2649 47.0245 26.4762 46.9304 26.6243 46.7654C26.7725 46.6006 26.8436 46.3806 26.82 46.1602C26.3446 41.7172 23.2871 38.1407 19.2286 36.8485ZM11.4739 31.935C11.4739 29.5123 13.4449 27.5414 15.8675 27.5414C18.29 27.5414 20.2609 29.5123 20.2609 31.935C20.2609 34.3576 18.29 36.3285 15.8675 36.3285C13.4449 36.3285 11.4739 34.3575 11.4739 31.935ZM6.60077 45.4621C7.47763 41.0894 11.3183 37.891 15.8674 37.891C20.4163 37.891 24.257 41.0894 25.134 45.4621H6.60077ZM18.8557 17.5053H19.5328V20.2348C19.5328 20.5536 19.7266 20.8404 20.0224 20.9595C20.117 20.9976 20.2158 21.016 20.3139 21.016C20.5225 21.016 20.7271 20.9324 20.8774 20.776L24.0195 17.5053H31.479C32.8601 17.5053 33.9837 16.3816 33.9837 15.0006V6.3626C33.9837 4.98145 32.8601 3.85791 31.479 3.85791H18.8557C17.4745 3.85791 16.351 4.98154 16.351 6.3626V15.0006C16.3509 16.3816 17.4745 17.5053 18.8557 17.5053ZM17.9134 6.3626C17.9134 5.84307 18.336 5.42041 18.8556 5.42041H31.4789C31.9984 5.42041 32.4211 5.84307 32.4211 6.3626V15.0006C32.4211 15.5201 31.9984 15.9428 31.4789 15.9428H23.6866C23.4739 15.9428 23.2705 16.0295 23.1231 16.1828L21.0951 18.2938V16.724C21.0951 16.2926 20.7453 15.9428 20.3139 15.9428H18.8555C18.3359 15.9428 17.9133 15.5201 17.9133 15.0006L17.9134 6.3626ZM20.0339 7.57744C20.0339 7.146 20.3837 6.79619 20.8151 6.79619H29.5194C29.9509 6.79619 30.3007 7.146 30.3007 7.57744C30.3007 8.00889 29.9509 8.35869 29.5194 8.35869H20.8151C20.3837 8.35869 20.0339 8.00889 20.0339 7.57744ZM20.0339 10.6815C20.0339 10.2501 20.3837 9.90029 20.8151 9.90029H29.5194C29.9509 9.90029 30.3007 10.2501 30.3007 10.6815C30.3007 11.113 29.9509 11.4628 29.5194 11.4628H20.8151C20.3837 11.4628 20.0339 11.1131 20.0339 10.6815ZM20.0339 13.7856C20.0339 13.3542 20.3837 13.0044 20.8151 13.0044H29.5194C29.9509 13.0044 30.3007 13.3542 30.3007 13.7856C30.3007 14.2171 29.9509 14.5669 29.5194 14.5669H20.8151C20.3837 14.5669 20.0339 14.2172 20.0339 13.7856Z" fill="url(#paint0_linear_214_10428)"/>
<defs>
<linearGradient id="paint0_linear_214_10428" x1="1.25098" y1="25.4412" x2="49.6887" y2="25.4412" gradientUnits="userSpaceOnUse">
<stop stop-color="#1956C1"/>
<stop offset="1" stop-color="#E2403B"/>
</linearGradient>
</defs>
</svg>
