<svg width="51" height="51" viewBox="0 0 51 51" fill="none" xmlns="http://www.w3.org/2000/svg">
<path fill-rule="evenodd" clip-rule="evenodd" d="M25.4817 11.8122C33.0103 11.8122 39.1121 17.914 39.1121 25.4426C39.1121 32.9713 33.0103 39.073 25.4817 39.073C17.9531 39.073 11.8513 32.9713 11.8513 25.4426C11.8513 17.914 17.9531 11.8122 25.4817 11.8122ZM34.8721 33.014C36.5431 30.9441 37.5435 28.3104 37.5435 25.4426C37.5435 18.7804 32.1439 13.3809 25.4817 13.3809C18.8194 13.3809 13.4199 18.7804 13.4199 25.4426C13.4199 28.3104 14.4203 30.9441 16.0913 33.014C16.958 29.9243 19.3077 27.4544 22.3232 26.4218C21.0133 25.4503 20.1607 23.8933 20.1607 22.1461C20.1607 19.2186 22.5542 16.8251 25.4817 16.8251C28.4091 16.8251 30.8027 19.2186 30.8027 22.1461C30.8027 23.8933 29.9501 25.4503 28.6402 26.4218C31.6557 27.4544 34.0054 29.9243 34.8721 33.014ZM17.3947 34.3924C19.534 36.3267 22.3701 37.5044 25.4817 37.5044C28.5933 37.5044 31.4293 36.3267 33.5687 34.3924C32.9625 30.4704 29.5716 27.467 25.4817 27.467C21.3918 27.467 18.0009 30.4704 17.3947 34.3924ZM25.4817 25.8984C27.5461 25.8984 29.234 24.2106 29.234 22.1461C29.234 20.0817 27.5461 18.3937 25.4817 18.3937C23.4173 18.3937 21.7293 20.0817 21.7293 22.1461C21.7293 24.2106 23.4173 25.8984 25.4817 25.8984ZM48.2135 26.2269H43.7094L44.3367 26.9713C44.6156 27.3022 44.5734 27.7974 44.2423 28.0765C43.9113 28.3554 43.4161 28.3131 43.1372 27.9821L41.4231 25.948C41.1769 25.6561 41.1769 25.2292 41.4231 24.9372L43.1372 22.9031C43.4161 22.5721 43.9113 22.5299 44.2423 22.8088C44.5734 23.0878 44.6156 23.583 44.3367 23.914L43.7094 24.6583H49.0111C49.444 24.6583 49.7954 25.0098 49.7954 25.4426C49.7954 37.2527 41.3565 47.1071 30.1851 49.3008C29.7604 49.3842 29.3479 49.107 29.2644 48.6823C29.181 48.2575 29.4582 47.845 29.8829 47.7616C40.0849 45.7583 47.8502 36.9246 48.2135 26.2269ZM24.6974 7.21489V1.91322C24.6974 1.48038 25.0489 1.12891 25.4817 1.12891C37.2918 1.12891 47.1462 9.56783 49.3398 20.7392C49.4233 21.1639 49.1461 21.5765 48.7214 21.6599C48.2966 21.7433 47.884 21.4662 47.8006 21.0415C45.7974 10.8394 36.9637 3.0741 26.266 2.71087V7.21489L27.0103 6.58763C27.3413 6.30871 27.8365 6.35097 28.1155 6.68204C28.3944 7.01302 28.3522 7.50822 28.0212 7.78714L25.9871 9.50126C25.6951 9.74744 25.2683 9.74744 24.9763 9.50126L22.9422 7.78714C22.6112 7.50822 22.5689 7.01302 22.8479 6.68204C23.1269 6.35097 23.6221 6.30871 23.9531 6.58763L24.6974 7.21489ZM2.74993 24.6583H7.25395L6.62669 23.914C6.34777 23.583 6.39003 23.0878 6.72111 22.8088C7.05209 22.5299 7.54728 22.5721 7.8262 22.9031L9.54032 24.9372C9.7865 25.2292 9.7865 25.6561 9.54032 25.948L7.8262 27.9821C7.54728 28.3131 7.05209 28.3554 6.72111 28.0765C6.39003 27.7974 6.34777 27.3022 6.62669 26.9713L7.25395 26.2269H1.95228C1.51944 26.2269 1.16797 25.8755 1.16797 25.4426C1.16797 13.6325 9.60689 3.77812 20.7783 1.58449C21.203 1.50106 21.6155 1.77822 21.6989 2.20293C21.7824 2.62773 21.5052 3.04028 21.0804 3.12371C10.8785 5.12695 3.11316 13.9607 2.74993 24.6583ZM24.6974 48.1744V43.6704L23.9531 44.2976C23.6221 44.5766 23.1269 44.5343 22.8479 44.2032C22.5689 43.8722 22.6112 43.377 22.9422 43.0981L24.9763 41.384C25.2683 41.1378 25.6951 41.1378 25.9871 41.384L28.0212 43.0981C28.3522 43.377 28.3944 43.8722 28.1155 44.2032C27.8365 44.5343 27.3413 44.5766 27.0103 44.2976L26.266 43.6704V48.972C26.266 49.4049 25.9145 49.7564 25.4817 49.7564C13.6716 49.7564 3.81718 41.3174 1.62356 30.1461C1.54013 29.7214 1.81728 29.3088 2.24199 29.2254C2.66679 29.1419 3.07934 29.4191 3.16277 29.8438C5.16601 40.0459 13.9997 47.8112 24.6974 48.1744Z" fill="url(#paint0_linear_215_10555)"/>
<defs>
<linearGradient id="paint0_linear_215_10555" x1="1.16797" y1="25.4426" x2="49.7954" y2="25.4426" gradientUnits="userSpaceOnUse">
<stop stop-color="#1956C1"/>
<stop offset="1" stop-color="#E2403B"/>
</linearGradient>
</defs>
</svg>
