<svg width="41" height="40" viewBox="0 0 41 40" fill="none" xmlns="http://www.w3.org/2000/svg">
<path d="M20.0507 18.9387C21.1301 16.2851 24.5562 9.91686 33.7675 5.4654C26.0211 -1.84527 13.9991 -1.77216 6.35938 5.3869C12.5878 8.1888 17.685 12.474 20.0507 18.9387ZM28.1493 4.54493L28.7642 4.87023C25.2591 7.27673 22.7029 9.50704 20.071 13.4343C17.5271 9.42101 14.9482 7.18418 11.3395 4.82484L11.9801 4.49415C17.0185 1.89277 23.1857 1.92261 28.1493 4.54493Z" fill="white"/>
<path d="M35.4351 7.22266C27.3301 10.7906 22.8347 15.8185 20.43 23.9797L20.0444 25.2891C17.8387 17.8015 14.8024 11.6905 4.65349 7.22266C1.65044 10.8206 0 15.3597 0 20.0383C0 29.882 7.25336 38.3199 16.8843 39.8283C16.8843 38.1045 16.6768 31.7326 16.183 29.1697C14.3217 19.5195 10.5739 15.6706 6.40626 13.5139C2.84215 19.8096 5.30421 28.5687 11.9476 32.9228L11.5468 29.1543C8.17658 25.733 6.82711 22.0608 7.42027 17.9331L7.52749 17.1895L8.10535 17.6697C12.9722 21.7093 14.5121 30.2862 14.3857 36.5904L13.8273 36.3774C4.12202 32.6825 -1.16488 20.6549 5.57846 10.4143C13.1272 14.4488 18.8719 20.3509 18.9224 40C19.0871 39.9995 20.9482 39.9995 21.1664 40C21.217 20.3509 26.9618 14.4488 34.5101 10.4143C41.2535 20.6549 35.9668 32.6825 26.2615 36.3774L25.7032 36.5904C25.5766 30.2861 27.1168 21.7093 31.9833 17.6697L32.5612 17.1895L32.6687 17.9331C33.262 22.0609 31.9123 25.733 28.5423 29.1543L28.1414 32.9228C34.7848 28.5687 37.2468 19.8097 33.6827 13.5139C29.5147 15.6706 25.767 19.5195 23.9057 29.1697C23.4119 31.7327 23.2045 38.1045 23.2045 39.8283C32.8352 38.3201 40.0887 29.882 40.0887 20.0383C40.0886 15.3597 38.4383 10.8207 35.4351 7.22266Z" fill="white"/>
</svg>
