<svg width="199" height="40" viewBox="0 0 199 40" fill="none" xmlns="http://www.w3.org/2000/svg">
<path d="M51.0789 19.94C51.0789 17.86 51.5289 16.01 52.4289 14.39C53.3289 12.75 54.5789 11.48 56.1789 10.58C57.7989 9.66 59.6289 9.2 61.6689 9.2C64.1689 9.2 66.3089 9.86 68.0889 11.18C69.8689 12.5 71.0589 14.3 71.6589 16.58H66.0189C65.5989 15.7 64.9989 15.03 64.2189 14.57C63.4589 14.11 62.5889 13.88 61.6089 13.88C60.0289 13.88 58.7489 14.43 57.7689 15.53C56.7889 16.63 56.2989 18.1 56.2989 19.94C56.2989 21.78 56.7889 23.25 57.7689 24.35C58.7489 25.45 60.0289 26 61.6089 26C62.5889 26 63.4589 25.77 64.2189 25.31C64.9989 24.85 65.5989 24.18 66.0189 23.3H71.6589C71.0589 25.58 69.8689 27.38 68.0889 28.7C66.3089 30 64.1689 30.65 61.6689 30.65C59.6289 30.65 57.7989 30.2 56.1789 29.3C54.5789 28.38 53.3289 27.11 52.4289 25.49C51.5289 23.87 51.0789 22.02 51.0789 19.94ZM82.4204 30.74C80.7804 30.74 79.3004 30.39 77.9804 29.69C76.6804 28.99 75.6504 27.99 74.8904 26.69C74.1504 25.39 73.7804 23.87 73.7804 22.13C73.7804 20.41 74.1604 18.9 74.9204 17.6C75.6804 16.28 76.7204 15.27 78.0404 14.57C79.3604 13.87 80.8404 13.52 82.4804 13.52C84.1204 13.52 85.6004 13.87 86.9204 14.57C88.2404 15.27 89.2804 16.28 90.0404 17.6C90.8004 18.9 91.1804 20.41 91.1804 22.13C91.1804 23.85 90.7904 25.37 90.0104 26.69C89.2504 27.99 88.2004 28.99 86.8604 29.69C85.5404 30.39 84.0604 30.74 82.4204 30.74ZM82.4204 26.3C83.4004 26.3 84.2304 25.94 84.9104 25.22C85.6104 24.5 85.9604 23.47 85.9604 22.13C85.9604 20.79 85.6204 19.76 84.9404 19.04C84.2804 18.32 83.4604 17.96 82.4804 17.96C81.4804 17.96 80.6504 18.32 79.9904 19.04C79.3304 19.74 79.0004 20.77 79.0004 22.13C79.0004 23.47 79.3204 24.5 79.9604 25.22C80.6204 25.94 81.4404 26.3 82.4204 26.3ZM99.032 16.55C99.632 15.63 100.382 14.91 101.282 14.39C102.182 13.85 103.182 13.58 104.282 13.58V19.01H102.872C101.592 19.01 100.632 19.29 99.992 19.85C99.352 20.39 99.032 21.35 99.032 22.73V30.5H93.902V13.76H99.032V16.55ZM111.864 16.13C112.364 15.35 113.054 14.72 113.934 14.24C114.814 13.76 115.844 13.52 117.024 13.52C118.404 13.52 119.654 13.87 120.774 14.57C121.894 15.27 122.774 16.27 123.414 17.57C124.074 18.87 124.404 20.38 124.404 22.1C124.404 23.82 124.074 25.34 123.414 26.66C122.774 27.96 121.894 28.97 120.774 29.69C119.654 30.39 118.404 30.74 117.024 30.74C115.864 30.74 114.834 30.5 113.934 30.02C113.054 29.54 112.364 28.92 111.864 28.16V38.48H106.734V13.76H111.864V16.13ZM119.184 22.1C119.184 20.82 118.824 19.82 118.104 19.1C117.404 18.36 116.534 17.99 115.494 17.99C114.474 17.99 113.604 18.36 112.884 19.1C112.184 19.84 111.834 20.85 111.834 22.13C111.834 23.41 112.184 24.42 112.884 25.16C113.604 25.9 114.474 26.27 115.494 26.27C116.514 26.27 117.384 25.9 118.104 25.16C118.824 24.4 119.184 23.38 119.184 22.1ZM132.225 16.55C132.825 15.63 133.575 14.91 134.475 14.39C135.375 13.85 136.375 13.58 137.475 13.58V19.01H136.065C134.785 19.01 133.825 19.29 133.185 19.85C132.545 20.39 132.225 21.35 132.225 22.73V30.5H127.095V13.76H132.225V16.55ZM138.907 22.1C138.907 20.38 139.227 18.87 139.867 17.57C140.527 16.27 141.417 15.27 142.537 14.57C143.657 13.87 144.907 13.52 146.287 13.52C147.467 13.52 148.497 13.76 149.377 14.24C150.277 14.72 150.967 15.35 151.447 16.13V13.76H156.577V30.5H151.447V28.13C150.947 28.91 150.247 29.54 149.347 30.02C148.467 30.5 147.437 30.74 146.257 30.74C144.897 30.74 143.657 30.39 142.537 29.69C141.417 28.97 140.527 27.96 139.867 26.66C139.227 25.34 138.907 23.82 138.907 22.1ZM151.447 22.13C151.447 20.85 151.087 19.84 150.367 19.1C149.667 18.36 148.807 17.99 147.787 17.99C146.767 17.99 145.897 18.36 145.177 19.1C144.477 19.82 144.127 20.82 144.127 22.1C144.127 23.38 144.477 24.4 145.177 25.16C145.897 25.9 146.767 26.27 147.787 26.27C148.807 26.27 149.667 25.9 150.367 25.16C151.087 24.42 151.447 23.41 151.447 22.13ZM169.619 26.15V30.5H167.009C165.149 30.5 163.699 30.05 162.659 29.15C161.619 28.23 161.099 26.74 161.099 24.68V18.02H159.059V13.76H161.099V9.68H166.229V13.76H169.589V18.02H166.229V24.74C166.229 25.24 166.349 25.6 166.589 25.82C166.829 26.04 167.229 26.15 167.789 26.15H169.619ZM188.256 21.86C188.256 22.34 188.226 22.84 188.166 23.36H176.556C176.636 24.4 176.966 25.2 177.546 25.76C178.146 26.3 178.876 26.57 179.736 26.57C181.016 26.57 181.906 26.03 182.406 24.95H187.866C187.586 26.05 187.076 27.04 186.336 27.92C185.616 28.8 184.706 29.49 183.606 29.99C182.506 30.49 181.276 30.74 179.916 30.74C178.276 30.74 176.816 30.39 175.536 29.69C174.256 28.99 173.256 27.99 172.536 26.69C171.816 25.39 171.456 23.87 171.456 22.13C171.456 20.39 171.806 18.87 172.506 17.57C173.226 16.27 174.226 15.27 175.506 14.57C176.786 13.87 178.256 13.52 179.916 13.52C181.536 13.52 182.976 13.86 184.236 14.54C185.496 15.22 186.476 16.19 187.176 17.45C187.896 18.71 188.256 20.18 188.256 21.86ZM183.006 20.51C183.006 19.63 182.706 18.93 182.106 18.41C181.506 17.89 180.756 17.63 179.856 17.63C178.996 17.63 178.266 17.88 177.666 18.38C177.086 18.88 176.726 19.59 176.586 20.51H183.006Z" fill="#010535"/>
<path d="M193.363 30.74C192.463 30.74 191.723 30.48 191.143 29.96C190.583 29.42 190.303 28.76 190.303 27.98C190.303 27.18 190.583 26.51 191.143 25.97C191.723 25.43 192.463 25.16 193.363 25.16C194.243 25.16 194.963 25.43 195.523 25.97C196.103 26.51 196.393 27.18 196.393 27.98C196.393 28.76 196.103 29.42 195.523 29.96C194.963 30.48 194.243 30.74 193.363 30.74Z" fill="#E1403C"/>
<path d="M20.0488 18.9387C21.1281 16.2851 24.5543 9.91686 33.7656 5.4654C26.0191 -1.84527 13.9972 -1.77216 6.35742 5.3869C12.5859 8.1888 17.683 12.474 20.0488 18.9387ZM28.1473 4.54493L28.7622 4.87023C25.2572 7.27673 22.7009 9.50704 20.0691 13.4343C17.5251 9.42101 14.9462 7.18418 11.3376 4.82484L11.9781 4.49415C17.0165 1.89277 23.1837 1.92261 28.1473 4.54493Z" fill="url(#paint0_linear_98_7)"/>
<path d="M35.4351 7.22266C27.3301 10.7906 22.8347 15.8185 20.43 23.9797L20.0444 25.2891C17.8387 17.8015 14.8024 11.6905 4.65349 7.22266C1.65044 10.8206 0 15.3597 0 20.0383C0 29.882 7.25336 38.3199 16.8843 39.8283C16.8843 38.1045 16.6768 31.7326 16.183 29.1697C14.3217 19.5195 10.5739 15.6706 6.40626 13.5139C2.84215 19.8096 5.30421 28.5687 11.9476 32.9228L11.5468 29.1543C8.17658 25.733 6.82711 22.0608 7.42027 17.9331L7.52749 17.1895L8.10536 17.6697C12.9722 21.7093 14.5121 30.2862 14.3857 36.5904L13.8273 36.3774C4.12202 32.6825 -1.16488 20.6549 5.57846 10.4143C13.1272 14.4488 18.8719 20.3509 18.9224 40C19.0871 39.9995 20.9482 39.9995 21.1664 40C21.217 20.3509 26.9618 14.4488 34.5101 10.4143C41.2535 20.6549 35.9668 32.6825 26.2615 36.3774L25.7032 36.5904C25.5766 30.2861 27.1168 21.7093 31.9833 17.6697L32.5612 17.1895L32.6687 17.9331C33.262 22.0609 31.9123 25.733 28.5423 29.1543L28.1414 32.9228C34.7848 28.5687 37.2468 19.8097 33.6827 13.5139C29.5147 15.6706 25.767 19.5195 23.9057 29.1697C23.4119 31.7327 23.2045 38.1045 23.2045 39.8283C32.8352 38.3201 40.0887 29.882 40.0887 20.0383C40.0886 15.3597 38.4383 10.8207 35.4351 7.22266Z" fill="url(#paint1_linear_98_7)"/>
<defs>
<linearGradient id="paint0_linear_98_7" x1="6.35742" y1="9.46933" x2="33.7656" y2="9.46933" gradientUnits="userSpaceOnUse">
<stop stop-color="#1956C1"/>
<stop offset="1" stop-color="#E2403B"/>
</linearGradient>
<linearGradient id="paint1_linear_98_7" x1="0" y1="23.6113" x2="40.0887" y2="23.6113" gradientUnits="userSpaceOnUse">
<stop stop-color="#1956C1"/>
<stop offset="1" stop-color="#E2403B"/>
</linearGradient>
</defs>
</svg>
